<?xml version="1.0" encoding="UTF-8" standalone="no"?>
<svg
   id="Logodaten"
   version="1.1"
   viewBox="0 0 510.00157 153"
   sodipodi:docname="logo_color.svg"
   width="510.00156"
   height="153"
   inkscape:version="1.3.2 (091e20e, 2023-11-25, custom)"
   xmlns:inkscape="http://www.inkscape.org/namespaces/inkscape"
   xmlns:sodipodi="http://sodipodi.sourceforge.net/DTD/sodipodi-0.dtd"
   xmlns="http://www.w3.org/2000/svg"
   xmlns:svg="http://www.w3.org/2000/svg">
  <defs
     id="defs29" />
  <sodipodi:namedview
     id="namedview29"
     pagecolor="#ffffff"
     bordercolor="#000000"
     borderopacity="0.25"
     inkscape:showpageshadow="2"
     inkscape:pageopacity="0.0"
     inkscape:pagecheckerboard="0"
     inkscape:deskcolor="#d1d1d1"
     inkscape:zoom="2.8502132"
     inkscape:cx="254.89321"
     inkscape:cy="76.660932"
     inkscape:window-width="2560"
     inkscape:window-height="1369"
     inkscape:window-x="2552"
     inkscape:window-y="-8"
     inkscape:window-maximized="1"
     inkscape:current-layer="g29" />
  <!-- Generator: Adobe Illustrator 29.2.1, SVG Export Plug-In . SVG Version: 2.1.0 Build 116)  -->
  <g
     id="g25"
     transform="translate(-85.198436,-65.2)">
    <g
       id="g14">
      <path
         d="m 197.4,183.3 h 6.3 c 4.1,0 4.9,2.6 4.9,4.4 0,1.8 -0.8,4.4 -4.9,4.4 h -3.8 v 5.5 h -2.5 z m 2.5,6.7 h 3.7 c 1.1,0 2.5,-0.6 2.5,-2.4 0,-1.8 -1.1,-2.4 -2.5,-2.4 h -3.7 v 4.7 z"
         fill="#768e09"
         id="path1" />
      <path
         d="m 210.9,183.3 h 2.3 v 5.3 0 c 0.6,-0.9 1.7,-1.6 3.1,-1.6 2.2,0 3.7,1.2 3.7,3.5 v 7.1 h -2.3 v -6.5 c 0,-1.6 -0.7,-2.3 -2,-2.3 -1.3,0 -2.5,1.2 -2.5,2.7 v 6.1 h -2.3 z"
         fill="#768e09"
         id="path2" />
      <path
         d="m 221.8,187.2 h 2.5 l 2.7,7.7 v 0 l 2.6,-7.7 h 2.4 l -4,10.9 c -0.7,1.9 -1.3,3.5 -3.7,3.5 -2.4,0 -1.1,0 -1.6,-0.1 v -1.9 c 0.4,0 0.7,0.1 1.1,0.1 1.1,0 1.3,-0.6 1.6,-1.4 l 0.3,-0.8 z"
         fill="#768e09"
         id="path3" />
      <path
         d="m 235.5,194.2 c 0.1,1.3 1.1,1.8 2.3,1.8 1.2,0 2.4,-0.2 2.3,-1.4 0,-1.2 -1.7,-1.3 -3.4,-1.7 -1.7,-0.4 -3.3,-1 -3.3,-3.1 0,-2.1 2.4,-3 4.3,-3 1.9,0 4,0.9 4.3,3.2 h -2.4 c -0.2,-1.1 -1.1,-1.4 -2.1,-1.4 -1,0 -1.9,0.2 -1.9,1.1 0,0.9 1.7,1.3 3.4,1.7 1.7,0.4 3.3,1 3.3,3 0,2 -2.5,3.4 -4.6,3.4 -2.1,0 -4.5,-1.2 -4.6,-3.6 h 2.3 z"
         fill="#768e09"
         id="path4" />
      <path
         d="m 244.8,183.3 h 2.3 v 2.2 h -2.3 z m 0,3.9 h 2.3 v 10.4 h -2.3 z"
         fill="#768e09"
         id="path5" />
      <path
         d="m 249.5,192.4 c 0,-3.2 1.9,-5.5 5.2,-5.5 3.3,0 5.2,2.3 5.2,5.5 0,3.2 -1.9,5.5 -5.2,5.5 -3.3,0 -5.2,-2.3 -5.2,-5.5 z m 8.2,0 c 0,-1.8 -0.9,-3.6 -2.9,-3.6 -2,0 -2.9,1.9 -2.9,3.6 0,1.7 0.9,3.7 2.9,3.7 2,0 2.9,-1.9 2.9,-3.7 z"
         fill="#768e09"
         id="path6" />
      <path
         d="m 261.4,187.2 h 1.7 v -3.1 h 2.3 v 3.1 h 2.1 v 1.7 h -2.1 v 5.5 c 0,0.9 0,1.4 1.1,1.4 1.1,0 0.6,0 1,0 v 1.8 c -0.5,0 -1,0.1 -1.5,0.1 -2.4,0 -2.8,-0.9 -2.9,-2.6 V 189 h -1.7 v -1.7 z"
         fill="#768e09"
         id="path7" />
      <path
         d="m 269.6,183.3 h 2.3 v 5.3 0 c 0.6,-0.9 1.7,-1.6 3.1,-1.6 2.2,0 3.7,1.2 3.7,3.5 v 7.1 h -2.3 v -6.5 c 0,-1.6 -0.7,-2.3 -2,-2.3 -1.3,0 -2.5,1.2 -2.5,2.7 v 6.1 h -2.3 z"
         fill="#768e09"
         id="path8" />
      <path
         d="m 283.4,193 c 0,1.6 0.9,3.1 2.8,3.1 1.9,0 2.1,-0.6 2.5,-1.7 h 2.2 c -0.5,2.3 -2.4,3.5 -4.7,3.5 -3.2,0 -5.1,-2.3 -5.1,-5.5 0,-3.2 1.9,-5.5 5,-5.5 3.1,0 5.3,2.9 4.9,6.1 z m 5.3,-1.5 c 0,-1.4 -1.1,-2.7 -2.6,-2.7 -1.5,0 -2.7,1.2 -2.7,2.7 z"
         fill="#768e09"
         id="path9" />
      <path
         d="m 293.2,187.2 h 2.1 v 2 0 c 0.3,-1.1 1.6,-2.3 3,-2.3 1.4,0 0.7,0 0.9,0 v 2.2 c -0.3,0 -0.7,0 -1,0 -1.6,0 -2.8,1.3 -2.8,3.5 v 4.9 h -2.3 v -10.4 z"
         fill="#768e09"
         id="path10" />
      <path
         d="m 309.5,195.3 c 0,0.6 0.1,0.8 0.5,0.8 0.4,0 0.3,0 0.6,0 v 1.6 c -0.3,0.1 -1.1,0.3 -1.4,0.3 -0.9,0 -1.6,-0.3 -1.8,-1.3 -0.9,0.9 -2.4,1.3 -3.6,1.3 -1.9,0 -3.5,-1 -3.5,-3 0,-2 2.1,-3 4,-3.2 1.6,-0.3 3.1,-0.1 3.1,-1.5 0,-1.4 -1.2,-1.4 -2.1,-1.4 -0.9,0 -2.2,0.5 -2.3,1.6 h -2.3 c 0.2,-2.7 2.4,-3.4 4.7,-3.4 2.3,0 4.1,0.8 4.1,3 v 5.3 z m -2.3,-2.9 c -0.7,0.5 -1.8,0.4 -2.8,0.6 -1,0.2 -1.9,0.5 -1.9,1.7 0,1.2 1.3,1.3 2.1,1.3 0.8,0 2.6,-0.5 2.6,-2 v -1.7 z"
         fill="#768e09"
         id="path11" />
      <path
         d="m 312.5,187.2 h 2.2 v 1.4 0 c 0.6,-1.2 1.9,-1.7 3.2,-1.7 3.3,0 4.9,2.5 4.9,5.5 0,3 -1.4,5.4 -4.5,5.4 -3.1,0 -2.7,-0.5 -3.5,-1.6 v 0 5.2 h -2.3 z m 5.1,1.5 c -1.9,0 -2.9,1.5 -2.9,3.7 0,2.2 1.1,3.6 2.9,3.6 1.8,0 2.9,-1.8 2.9,-3.6 0,-1.8 -1,-3.7 -2.9,-3.7 z"
         fill="#768e09"
         id="path12" />
      <path
         d="m 325.2,183.3 h 2.3 v 2.2 h -2.3 z m 0,3.9 h 2.3 v 10.4 h -2.3 z"
         fill="#768e09"
         id="path13" />
      <path
         d="m 332.3,193 c 0,1.6 0.9,3.1 2.8,3.1 1.9,0 2.1,-0.6 2.5,-1.7 h 2.2 c -0.5,2.3 -2.4,3.5 -4.7,3.5 -3.2,0 -5.1,-2.3 -5.1,-5.5 0,-3.2 1.9,-5.5 5,-5.5 3.1,0 5.3,2.9 4.9,6.1 z m 5.3,-1.5 c 0,-1.4 -1.1,-2.7 -2.6,-2.7 -1.5,0 -2.7,1.2 -2.7,2.7 z"
         fill="#768e09"
         id="path14" />
    </g>
    <g
       id="g24">
      <path
         d="m 254.8,109 c -0.7,-0.7 -1.6,-1 -2.5,-1.1 -1.3,0 -2.3,0.5 -3.1,1.6 l -22.6,33.7 -22.3,-33.7 c -0.4,-0.5 -0.9,-0.9 -1.5,-1.2 -0.6,-0.3 -1.2,-0.5 -1.8,-0.5 -1.1,0 -2,0.4 -2.7,1.1 -0.7,0.8 -1,1.6 -1,2.6 v 55.8 c 0,1 0.3,1.9 0.9,2.6 0.6,0.7 1.5,1.1 2.5,1.1 1,0 1.9,-0.4 2.5,-1.1 0.7,-0.7 1,-1.6 1,-2.6 v -45.6 l 19.1,29.5 c 0.4,0.4 0.8,0.8 1.4,1.1 0.5,0.3 1.1,0.5 1.6,0.5 0.5,0 1.1,-0.1 1.6,-0.5 0.5,-0.3 0.9,-0.7 1.3,-1.1 l 19,-28.9 v 45.1 c 0,1 0.4,1.9 1.1,2.6 0.7,0.7 1.6,1.1 2.7,1.1 1.1,0 2,-0.4 2.7,-1.1 0.7,-0.7 1.1,-1.6 1.1,-2.6 v -55.8 c 0,-1.1 -0.4,-2 -1.1,-2.6 z"
         fill="#3b3b3b"
         id="path15" />
      <path
         d="m 311.1,125.1 c -0.7,-0.7 -1.5,-1 -2.6,-1 -1.1,0 -2,0.3 -2.6,1 -0.7,0.7 -1,1.5 -1,2.6 v 3.7 c -0.8,-1.2 -1.7,-2.3 -2.9,-3.4 -1.7,-1.4 -3.6,-2.6 -5.8,-3.4 -2.2,-0.8 -4.6,-1.3 -7.2,-1.3 -4,0 -7.6,1 -10.8,3.1 -3.2,2.1 -5.8,4.9 -7.7,8.6 -1.9,3.6 -2.8,7.8 -2.8,12.6 0,4.8 0.9,8.9 2.8,12.5 1.9,3.7 4.5,6.6 7.7,8.7 3.2,2.1 6.9,3.2 11,3.2 4.1,0 4.8,-0.4 6.9,-1.3 2.1,-0.9 4,-2 5.5,-3.3 1.4,-1.2 2.5,-2.5 3.3,-3.9 v 3.9 c 0,1 0.3,1.9 1,2.6 0.7,0.7 1.5,1.1 2.6,1.1 1.1,0 1.9,-0.4 2.6,-1.1 0.7,-0.7 1,-1.6 1,-2.6 v -39.8 c 0,-1 -0.3,-1.9 -1,-2.6 z m -13.2,38 c -2.3,1.6 -5,2.3 -8,2.3 -3,0 -5.7,-0.8 -8,-2.3 -2.3,-1.6 -4.1,-3.7 -5.4,-6.4 -1.3,-2.7 -1.9,-5.7 -1.9,-9.1 0,-3.4 0.7,-6.5 2,-9.1 1.3,-2.6 3.1,-4.7 5.5,-6.2 2.3,-1.5 4.9,-2.3 7.9,-2.3 3,0 5.7,0.8 8,2.3 2.3,1.5 4.1,3.6 5.4,6.3 1.3,2.7 1.9,5.7 1.9,9 0,3.3 -0.6,6.4 -1.9,9.1 -1.3,2.7 -3.1,4.8 -5.4,6.4 z"
         fill="#3b3b3b"
         id="path16" />
      <path
         d="m 383,132.7 c -1,-2.8 -2.7,-5.1 -5,-6.8 -2.3,-1.7 -5.6,-2.5 -9.7,-2.5 -4.1,0 -4.2,0.4 -6.2,1.1 -2,0.8 -3.8,1.8 -5.4,3 -1.6,1.3 -3,2.7 -4.1,4.3 -0.1,0.2 -0.2,0.3 -0.3,0.5 v -4.1 c 0,-1 -0.3,-1.9 -1,-2.6 -0.7,-0.7 -1.5,-1 -2.6,-1 -1.1,0 -1.9,0.3 -2.6,1 -0.7,0.7 -1,1.5 -1,2.6 v 39.3 c 0,1 0.3,1.9 1,2.6 0.7,0.7 1.5,1.1 2.6,1.1 1.1,0 1.9,-0.4 2.6,-1.1 0.7,-0.7 1,-1.6 1,-2.6 v -25.2 c 0,-2.3 0.6,-4.3 1.9,-6.2 1.3,-1.8 2.9,-3.3 5.1,-4.4 2.1,-1.1 4.4,-1.7 6.9,-1.7 2.5,0 4.9,0.6 6.5,1.7 1.6,1.1 2.7,2.6 3.4,4.4 0.7,1.8 1,3.9 1,6.2 v 25.2 c 0,1 0.3,1.9 1,2.6 0.7,0.7 1.5,1.1 2.6,1.1 1.1,0 1.9,-0.4 2.6,-1.1 0.7,-0.7 1,-1.6 1,-2.6 v -25.3 c 0,-3.5 -0.5,-6.6 -1.5,-9.5 z"
         fill="#3b3b3b"
         id="path17" />
      <path
         d="m 472.3,108.9 c -0.7,-0.6 -1.6,-0.9 -2.6,-0.9 -1.5,0 -2.6,0.8 -3.3,2.3 l -19.8,49.1 -20.5,-48.9 c -0.7,-1.7 -1.9,-2.5 -3.5,-2.5 -1.6,0 -1.6,0.3 -2.4,0.9 -0.8,0.6 -1.2,1.5 -1.2,2.7 0,1.2 0,0.6 0,0.9 0,0.3 0.1,0.5 0.3,0.8 l 23.4,55.7 c 0.3,0.7 0.8,1.3 1.4,1.7 0.6,0.4 1.2,0.6 1.9,0.7 0.7,0 1.4,-0.2 2,-0.6 0.6,-0.4 1.1,-1 1.5,-1.8 L 473,113.2 c 0.2,-0.6 0.4,-1.1 0.4,-1.6 0,-1 -0.4,-1.8 -1.1,-2.5 z"
         fill="#3b3b3b"
         id="path18" />
      <path
         d="m 521.8,130.8 c 1,0 1.8,-0.3 2.4,-0.9 0.6,-0.6 0.9,-1.4 0.9,-2.4 0,-1 -0.3,-1.7 -0.9,-2.3 -0.6,-0.7 -1.4,-1 -2.4,-1 h -8.2 v -12.5 c 0,-1 -0.3,-1.9 -1,-2.6 -0.7,-0.7 -1.5,-1 -2.5,-1 -1,0 -1.9,0.3 -2.6,1 -0.7,0.7 -1.1,1.6 -1.1,2.6 v 12.5 h -5.8 c -0.9,0 -1.7,0.3 -2.3,0.9 -0.7,0.6 -1,1.4 -1,2.3 0,0.9 0.3,1.8 1,2.4 0.7,0.7 1.4,1 2.3,1 h 5.8 v 29.3 c 0,2.8 0.4,4.9 1.2,6.4 0.8,1.5 1.8,2.6 3,3.3 1.2,0.7 2.4,1.1 3.7,1.2 1.2,0.1 2.3,0.2 3.1,0.2 1.6,0 3,-0.4 4.2,-1.1 1.3,-0.8 1.9,-1.7 1.9,-2.7 0,-1 -0.3,-1.6 -0.8,-2.2 -0.5,-0.6 -1.1,-0.9 -1.7,-0.9 -0.6,0 -1.1,0.1 -1.6,0.3 -0.5,0.2 -1,0.3 -1.6,0.3 -0.6,0 -1.3,-0.1 -2,-0.4 -0.7,-0.3 -1.2,-0.8 -1.7,-1.5 -0.5,-0.7 -0.6,-1.8 -0.6,-3.2 v -29 h 8.2 z"
         fill="#3b3b3b"
         id="path19" />
      <path
         d="m 573.5,125.1 c -0.7,-0.7 -1.5,-1 -2.6,-1 -1.1,0 -2,0.3 -2.6,1 -0.7,0.7 -1,1.5 -1,2.6 v 3.7 c -0.8,-1.2 -1.7,-2.3 -2.9,-3.4 -1.7,-1.4 -3.6,-2.6 -5.8,-3.4 -2.2,-0.8 -4.6,-1.3 -7.2,-1.3 -4,0 -7.6,1 -10.8,3.1 -3.2,2.1 -5.8,4.9 -7.7,8.6 -1.9,3.6 -2.8,7.8 -2.8,12.6 0,4.8 0.9,8.9 2.8,12.5 1.9,3.7 4.5,6.6 7.7,8.7 3.2,2.1 6.9,3.2 11,3.2 4.1,0 4.8,-0.4 6.9,-1.3 2.1,-0.9 4,-2 5.5,-3.3 1.4,-1.2 2.5,-2.5 3.3,-3.9 v 3.9 c 0,1 0.3,1.9 1,2.6 0.7,0.7 1.5,1.1 2.6,1.1 1.1,0 1.9,-0.4 2.6,-1.1 0.7,-0.7 1,-1.6 1,-2.6 v -39.8 c 0,-1 -0.3,-1.9 -1,-2.6 z m -13.2,38 c -2.3,1.6 -5,2.3 -8,2.3 -3,0 -5.7,-0.8 -8,-2.3 -2.3,-1.6 -4.1,-3.7 -5.4,-6.4 -1.3,-2.7 -1.9,-5.7 -1.9,-9.1 0,-3.4 0.7,-6.5 2,-9.1 1.3,-2.6 3.1,-4.7 5.5,-6.2 2.3,-1.5 4.9,-2.3 7.9,-2.3 3,0 5.7,0.8 8,2.3 2.3,1.5 4.1,3.6 5.4,6.3 1.3,2.7 1.9,5.7 1.9,9 0,3.3 -0.6,6.4 -1.9,9.1 -1.3,2.7 -3.1,4.8 -5.4,6.4 z"
         fill="#3b3b3b"
         id="path20" />
      <path
         d="m 595.2,167.5 c 0,1 -0.4,1.9 -1.1,2.6 -0.7,0.7 -1.6,1.1 -2.6,1.1 -1,0 -1.9,-0.4 -2.5,-1.1 -0.7,-0.7 -1,-1.6 -1,-2.6 v -55.9 c 0,-1 0.3,-1.9 1,-2.6 0.7,-0.7 1.5,-1 2.6,-1 1.1,0 2,0.3 2.6,1 0.7,0.7 1,1.5 1,2.6 z"
         fill="#3b3b3b"
         id="path21" />
      <g
         id="g22">
        <path
           d="m 332.3,167.5 c 0,1 -0.3,1.9 -1,2.6 -0.7,0.7 -1.5,1.1 -2.6,1.1 -1.1,0 -2,-0.4 -2.6,-1.1 -0.7,-0.7 -1,-1.6 -1,-2.6 v -40 c 0,-1 0.3,-1.9 1,-2.6 0.7,-0.7 1.5,-1 2.6,-1 1.1,0 1.9,0.3 2.6,1 0.7,0.7 1,1.6 1,2.6 z"
           fill="#3b3b3b"
           id="path22" />
        <circle
           cx="328.70001"
           cy="112.2"
           r="4.3000002"
           fill="#3b3b3b"
           id="circle22" />
      </g>
      <g
         id="g23">
        <path
           d="m 489.4,167.5 c 0,1 -0.3,1.9 -1,2.6 -0.7,0.7 -1.5,1.1 -2.6,1.1 -1.1,0 -2,-0.4 -2.6,-1.1 -0.7,-0.7 -1,-1.6 -1,-2.6 v -40 c 0,-1 0.3,-1.9 1,-2.6 0.7,-0.7 1.5,-1 2.6,-1 1.1,0 1.9,0.3 2.6,1 0.7,0.7 1,1.6 1,2.6 z"
           fill="#3b3b3b"
           id="path23" />
        <circle
           cx="485.79999"
           cy="112.2"
           r="4.3000002"
           fill="#3b3b3b"
           id="circle23" />
      </g>
    </g>
  </g>
  <g
     id="g29"
     transform="translate(-85.198436,-65.2)">
    <ellipse
       cx="124.5"
       cy="216.3"
       rx="37.799999"
       ry="1.9"
       fill="#1a1a18"
       opacity="0"
       id="ellipse25"
       style="fill:#bdb8b8;fill-opacity:0.16862746;opacity:1" />
    <path
       d="m 151.8,106.3 c -1.5,-6.2 -7,-17.3 -9.1,-17.4 -5.7,-0.4 -11.6,-0.1 -14.1,0 h -0.8 c -1.4,0.1 -2.2,0.9 -2.7,1.5 -0.8,0.9 -0.7,0.7 -1.4,0 -0.5,-0.6 -1.2,-1.3 -2.3,-1.4 h -0.3 c -2.2,-0.2 -8.8,-0.6 -14.9,0 -2.2,0.2 -7,9.6 -8.9,17.4 -0.4,1.6 -0.3,2.6 0.1,3.3 0.6,0.9 1.6,1.1 2.8,1.3 h 0.2 c 1.2,0.2 7.1,0.7 10.5,0.9 1,0 1.5,-1 2.5,-3 0.3,-0.5 0.6,-1.3 0.9,-1.8 0.4,0.5 0.9,1.4 1.3,2 1.2,2 1.9,3.1 2.9,3.1 2.1,0.1 3.9,0.2 5.7,0.2 1.8,0 3.4,0 5.4,-0.2 0.9,0 1.4,-1 2.5,-3.3 0.3,-0.6 0.7,-1.4 1,-2 0.3,0.5 0.7,1.3 1,1.8 1,2 1.6,3.2 2.7,3.2 h 1 c 4.7,-0.4 9.7,-0.8 10.9,-0.9 h 0.2 c 1.2,-0.2 2.2,-0.4 2.8,-1.3 0.5,-0.7 0.5,-1.7 0.1,-3.3 z"
       fill="#768e09"
       id="path25" />
    <path
       d="m 124.5,179.6 c -9.8,0 -29.3,-1.8 -32,-2.2 -2.7,-0.4 -5,-2 -6.3,-4.4 -1.3,-2.3 -1.3,-5 -0.2,-7.4 1.8,-3.8 2.3,-8.1 1.5,-13 -0.4,-2.8 0,-4.9 1.3,-6.3 1.7,-1.8 4.1,-1.5 4.4,-1.5 5.4,0.7 24.1,1.8 31.3,1.8 7.2,0 25.9,-1.2 31.3,-1.8 0.3,0 2.7,-0.3 4.4,1.5 1.3,1.4 1.8,3.5 1.3,6.3 -0.8,4.9 -0.3,9.3 1.5,13 1.1,2.4 1,5.1 -0.2,7.4 -1.3,2.4 -3.6,4 -6.3,4.4 -2.7,0.4 -22.2,2.2 -32,2.2 z m -31.9,-33 c -0.7,0 -1.8,0.2 -2.5,1 -0.9,0.9 -1.2,2.5 -0.8,4.8 0.8,5.2 0.3,10 -1.6,14.1 -0.9,1.8 -0.8,3.9 0.2,5.7 1,1.9 2.8,3.1 4.9,3.4 2.7,0.4 22,2.2 31.8,2.2 9.8,0 29.1,-1.8 31.8,-2.2 2.1,-0.3 3.9,-1.5 4.9,-3.4 1,-1.8 1,-3.9 0.2,-5.7 -1.9,-4.1 -2.5,-8.8 -1.6,-14.1 0.4,-2.2 0,-3.8 -0.8,-4.8 -0.9,-0.9 -2.3,-1 -2.9,-1 -5.4,0.7 -24.2,1.8 -31.5,1.8 -7.3,0 -26.1,-1.2 -31.5,-1.8 0,0 -0.2,0 -0.3,0 z"
       fill="#b9ada2"
       id="path26" />
    <path
       d="m 124.5,143.6 c -8.4,0 -24.9,-1.4 -27.3,-1.7 -2.3,-0.3 -4.3,-1.7 -5.4,-3.8 -1.1,-2 -1.2,-4.4 -0.2,-6.4 1.5,-3.2 1.9,-6.9 1.3,-11 -0.5,-3.2 0.5,-5 1.4,-6 1.2,-1.3 2.9,-1.6 3.7,-1.5 4.4,0.6 18.4,1.9 26.6,1.9 8.2,0 21.5,-1.3 26.6,-1.9 0.8,-0.1 2.4,0.2 3.7,1.5 0.9,0.9 1.9,2.8 1.4,6 -0.7,4.1 -0.2,7.8 1.3,11 1,2.1 0.9,4.4 -0.2,6.4 -1.1,2.1 -3.1,3.4 -5.4,3.8 -2.4,0.3 -18.9,1.7 -27.3,1.7 z m -27,-28.5 c -0.4,0 -1.3,0.2 -2,0.9 -0.9,0.9 -1.2,2.4 -0.9,4.4 0.7,4.5 0.2,8.6 -1.4,12.1 -0.7,1.5 -0.7,3.3 0.1,4.8 0.8,1.5 2.3,2.6 4.1,2.8 2.3,0.3 18.7,1.7 27,1.7 8.3,0 24.7,-1.4 27,-1.7 1.8,-0.2 3.2,-1.3 4.1,-2.8 0.8,-1.5 0.9,-3.2 0.1,-4.8 -1.6,-3.5 -2.1,-7.6 -1.4,-12.1 0.3,-2 0,-3.5 -0.9,-4.4 -0.8,-0.8 -1.8,-0.9 -2.1,-0.9 -5.1,0.6 -19.3,1.9 -26.8,1.9 -7.5,0 -22.4,-1.3 -26.8,-1.9 0,0 0,0 0,0 z"
       fill="#b9ada2"
       id="path27" />
    <path
       d="m 158.2,180.9 c -0.2,-0.2 -0.6,-0.6 -1.4,-0.5 -4.3,0.7 -17.2,1.8 -22.8,2.2 -2,0.1 -7.3,4.6 -9.6,6.6 -2.3,-2 -7.6,-6.5 -9.6,-6.6 -5.6,-0.4 -18.5,-1.5 -22.8,-2.2 -0.8,-0.1 -1.2,0.2 -1.4,0.5 -0.5,0.7 0,1.6 0.1,1.9 2.5,4.9 30.5,33.3 34,33.3 3.5,0 30.6,-27.9 33.3,-33.2 0.2,-0.4 0.7,-1.3 0.1,-2 z"
       fill="#768e09"
       id="path28" />
    <path
       d="m 124.5,65.2 c -0.8,0 -1.5,0.7 -1.5,1.3 v 16.1 c 0,0 0.3,3.6 1.5,3.6 1.2,0 1.5,-3.6 1.5,-3.6 V 66.5 c 0,-0.7 -0.8,-1.3 -1.5,-1.3 z"
       fill="#b9ada2"
       id="path29" />
  </g>
</svg>
