<?xml version="1.0" encoding="UTF-8" standalone="no"?>
<!-- Created with Inkscape (http://www.inkscape.org/) -->

<svg
   width="160mm"
   height="160mm"
   viewBox="0 0 160 160"
   version="1.1"
   id="svg1"
   xml:space="preserve"
   inkscape:version="1.3.2 (091e20e, 2023-11-25, custom)"
   sodipodi:docname="phone-classic.svg"
   xmlns:inkscape="http://www.inkscape.org/namespaces/inkscape"
   xmlns:sodipodi="http://sodipodi.sourceforge.net/DTD/sodipodi-0.dtd"
   xmlns="http://www.w3.org/2000/svg"
   xmlns:svg="http://www.w3.org/2000/svg"><sodipodi:namedview
     id="namedview1"
     pagecolor="#ffffff"
     bordercolor="#000000"
     borderopacity="0.25"
     inkscape:showpageshadow="2"
     inkscape:pageopacity="0.0"
     inkscape:pagecheckerboard="0"
     inkscape:deskcolor="#d1d1d1"
     inkscape:document-units="mm"
     inkscape:zoom="1.4778115"
     inkscape:cx="378.93872"
     inkscape:cy="314.99281"
     inkscape:window-width="2560"
     inkscape:window-height="1369"
     inkscape:window-x="2552"
     inkscape:window-y="-8"
     inkscape:window-maximized="1"
     inkscape:current-layer="g1" /><defs
     id="defs1" /><g
     inkscape:label="Ebene 1"
     inkscape:groupmode="layer"
     id="layer1"
     transform="translate(-4.3147508,-44.985102)"><g
       style="fill:none;stroke:#000000"
       id="g1"
       transform="matrix(3.3072917,0,0,3.3072917,-21.518756,20.005532)"><path
         d="m 8,24.540657 a 4,4 0 0 0 4,4 h 8 a 4,4 0 0 0 4,-4 c 0,-4 4,-4 8,-4 4,0 8,0 8,4 a 4,4 0 0 0 4,4 h 8 a 4,4 0 0 0 4,-4 c 0,-10 -4,-14 -24,-14 -20,0 -24,4 -24,14 z"
         id="path1"
         style="fill:#ffffff;fill-opacity:1;stroke:none" /><path
         id="path2"
         style="fill:#ffffff;fill-opacity:1;stroke:none"
         d="m 16.000052,28.999989 -3.91,11.73 a 9.32,9.32 0 0 0 8.85,12.27 h 22.12 a 9.32,9.32 0 0 0 8.85,-12.27 l -3.91,-11.73 z m 16,2.105313 a 8,8 0 0 1 8,8 8,8 0 0 1 -8,8 8,8 0 0 1 -8,-8 8,8 0 0 1 8,-8 z" /><rect
         style="fill:none;stroke-width:0.082023"
         id="rect1"
         width="48.295929"
         height="48.295929"
         x="7.8520875"
         y="7.5938892" /></g></g></svg>
