<?xml version="1.0" encoding="UTF-8" standalone="no"?>
<!-- Created with Inkscape (http://www.inkscape.org/) -->

<svg
   width="26.839331mm"
   height="26.607899mm"
   viewBox="0 0 26.839331 26.607899"
   version="1.1"
   id="svg1"
   xml:space="preserve"
   inkscape:version="1.3.2 (091e20e, 2023-11-25, custom)"
   sodipodi:docname="focus.svg"
   xmlns:inkscape="http://www.inkscape.org/namespaces/inkscape"
   xmlns:sodipodi="http://sodipodi.sourceforge.net/DTD/sodipodi-0.dtd"
   xmlns="http://www.w3.org/2000/svg"
   xmlns:svg="http://www.w3.org/2000/svg"><sodipodi:namedview
     id="namedview1"
     pagecolor="#ffffff"
     bordercolor="#000000"
     borderopacity="0.25"
     inkscape:showpageshadow="2"
     inkscape:pageopacity="0.0"
     inkscape:pagecheckerboard="0"
     inkscape:deskcolor="#d1d1d1"
     inkscape:document-units="mm"
     showgrid="false"
     inkscape:zoom="4.1798822"
     inkscape:cx="35.168456"
     inkscape:cy="52.752683"
     inkscape:window-width="2560"
     inkscape:window-height="1369"
     inkscape:window-x="-8"
     inkscape:window-y="-8"
     inkscape:window-maximized="1"
     inkscape:current-layer="g535" /><defs
     id="defs1" /><g
     inkscape:label="Layer 1"
     inkscape:groupmode="layer"
     id="layer1"
     transform="translate(-320.02203,87.005442)"><g
       inkscape:label="Layer 1"
       id="layer1-9"
       transform="translate(25.572898,154.57674)"><g
         id="g535"><path
           d="m 307.25402,-215.04712 c -0.41232,-0.14418 -0.84425,-0.52379 -1.05175,-0.92434 -0.23215,-0.44813 -0.2784,-1.62173 -0.0691,-1.75453 0.40922,-0.25971 0.67723,0.0195 0.67765,0.70602 5e-4,0.83282 0.3525,1.26588 1.02893,1.26588 0.66204,0 1.0866,-0.52319 1.0871,-1.33966 3.4e-4,-0.54388 0.0918,-0.71544 0.38132,-0.71544 0.30126,0 0.38111,0.1685 0.37914,0.8001 -0.003,0.88448 -0.34932,1.52311 -1.0127,1.86616 -0.34143,0.17656 -1.05248,0.22451 -1.42055,0.0958 z m -2.52597,-3.26021 c -0.91387,-0.41948 -0.96799,-1.6811 -0.0997,-2.32428 0.32619,-0.24163 1.57441,-0.31314 1.78528,-0.10228 0.38961,0.38961 0.0231,0.7234 -0.79422,0.7234 -0.43567,0 -0.59195,0.0345 -0.70083,0.15484 -0.2112,0.23338 -0.17525,0.56724 0.083,0.77035 0.21493,0.16907 0.32024,0.17548 2.88251,0.17548 h 2.65943 l 0.21593,-0.21593 c 0.16744,-0.16744 0.20356,-0.26725 0.16085,-0.4445 -0.084,-0.34868 -0.273,-0.44024 -0.90866,-0.44024 -0.46359,0 -0.60964,-0.0332 -0.74581,-0.16933 -0.20384,-0.20384 -0.20715,-0.247 -0.0375,-0.48916 0.11568,-0.16515 0.20631,-0.18795 0.74084,-0.18631 1.12876,0.003 1.70206,0.46161 1.70703,1.36422 0.003,0.52302 -0.13759,0.79575 -0.58014,1.12635 -0.22395,0.1673 -0.35409,0.17544 -3.12743,0.19556 -2.67881,0.0194 -2.91952,0.009 -3.24051,-0.13817 z m -0.60635,-2.73245 c -0.16914,-0.16914 -0.12444,-0.69517 0.0856,-1.00677 0.29068,-0.43134 0.6673,-0.60933 1.38706,-0.65553 0.69738,-0.0447 0.96215,0.0813 0.96215,0.45807 0,0.275 -0.23662,0.37086 -0.9154,0.37086 -0.6513,0 -0.71179,0.0381 -0.88061,0.55521 -0.084,0.2571 -0.15776,0.33949 -0.32125,0.35859 -0.11674,0.0136 -0.25962,-0.0225 -0.3175,-0.0804 z m 6.93903,-0.004 c -0.0559,-0.0559 -0.1016,-0.16504 -0.1016,-0.24258 0,-0.0775 -0.079,-0.24137 -0.17548,-0.36407 -0.1594,-0.20265 -0.22922,-0.22309 -0.762,-0.22309 -0.47363,0 -0.61911,-0.0326 -0.75585,-0.16933 -0.21413,-0.21413 -0.21252,-0.29548 0.0103,-0.51828 0.15993,-0.15993 0.25133,-0.17547 0.834,-0.14174 0.80671,0.0467 1.21755,0.26743 1.44985,0.77894 0.268,0.5901 0.18031,0.98175 -0.2198,0.98175 -0.0978,0 -0.22352,-0.0457 -0.2794,-0.1016 z m -6.60258,-1.89289 c -0.3986,-0.27918 -0.57724,-1.08638 -0.35055,-1.58391 0.0761,-0.16693 0.0515,-0.26362 -0.14809,-0.58427 -0.18732,-0.30088 -0.32579,-0.41499 -0.63821,-0.52595 -0.94408,-0.33531 -1.92845,-1.87689 -1.59561,-2.49881 0.21032,-0.39298 0.76677,-0.0891 0.76677,0.41874 0,0.3393 0.47743,0.98653 0.91935,1.24632 0.33932,0.19947 0.48549,0.23107 1.07032,0.23134 0.75783,3.5e-4 0.889,0.0495 0.889,0.33298 0,0.23148 -0.12419,0.35056 -0.45117,0.43263 -0.52861,0.13267 -0.0218,0.21115 1.21969,0.18886 l 1.30581,-0.0234 0.0216,-7.48582 c 0.0243,-8.40301 0.0829,-7.66175 -0.62745,-7.93304 -0.30719,-0.11732 -0.43054,-0.12549 -0.69551,-0.0461 -0.17716,0.0531 -0.39136,0.17303 -0.47601,0.26657 -0.22415,0.24769 -0.61447,0.22452 -0.7367,-0.0437 -0.0873,-0.19155 -0.0674,-0.24475 0.19109,-0.51143 0.57426,-0.59249 1.63665,-0.6864 2.38636,-0.21096 l 0.37007,0.2347 0.24488,-0.19526 c 0.31374,-0.25017 0.97324,-0.40835 1.41081,-0.33838 0.87177,0.1394 1.51532,0.77176 1.15357,1.13351 -0.15666,0.15665 -0.39152,0.12147 -0.68722,-0.10293 -0.50321,-0.38189 -1.11701,-0.36002 -1.56068,0.0556 l -0.1905,0.17845 v 7.52057 7.52058 h 1.35466 c 0.74507,0 1.35467,-0.0312 1.35467,-0.0694 0,-0.0382 -0.12383,-0.12389 -0.27517,-0.1905 -0.29918,-0.13168 -0.40381,-0.4231 -0.22797,-0.63497 0.0792,-0.0955 0.22099,-0.1114 0.62396,-0.0701 0.43214,0.0443 0.59759,0.0207 0.966,-0.13782 0.52328,-0.22511 0.99093,-0.73021 1.13113,-1.22172 0.12666,-0.44405 0.21589,-0.55416 0.44905,-0.55416 0.43225,0 0.48382,0.49058 0.12867,1.2242 -0.25109,0.51868 -0.71384,0.96076 -1.29185,1.23411 -0.37288,0.17634 -0.55886,0.32938 -0.73073,0.60129 -0.22173,0.35078 -0.22585,0.37784 -0.1076,0.70666 0.0789,0.21942 0.10184,0.45445 0.064,0.656 -0.0682,0.36348 -0.42437,0.82707 -0.63545,0.82707 -0.34273,0 -0.45768,-0.43133 -0.21405,-0.80317 0.14438,-0.22035 0.10665,-0.46806 -0.10328,-0.67799 -0.10839,-0.10838 -0.54477,-0.1275 -2.91065,-0.1275 -2.78005,0 -2.7833,2.1e-4 -2.91496,0.18817 -0.1789,0.25542 -0.16566,0.51694 0.0354,0.69887 0.51296,0.46422 0.0758,1.06872 -0.48748,0.67415 z m 13.72591,-2.41505 c -0.91547,-0.81864 -2.06026,-1.94966 -2.06026,-2.03549 0,-0.20871 0.19031,-0.41273 0.38501,-0.41273 0.15255,0 0.5336,0.30455 1.39803,1.11736 0.97465,0.91645 1.18379,1.15449 1.16314,1.32389 -0.0138,0.1136 -0.10772,0.26102 -0.20859,0.32759 -0.17116,0.11298 -0.21637,0.0916 -0.67733,-0.32062 z m -21.47715,0.28934 c -0.031,-0.031 -0.0565,-0.16126 -0.0565,-0.28936 0,-0.18913 0.21889,-0.44116 1.16416,-1.34041 1.14355,-1.08788 1.38228,-1.23681 1.6129,-1.00619 0.24987,0.24987 0.10064,0.46928 -1.07489,1.58038 -0.8468,0.8004 -1.23433,1.11202 -1.38289,1.11202 -0.11352,0 -0.23179,-0.0254 -0.26284,-0.0564 z m 12.64116,-1.13336 c -0.12391,-0.23153 -0.12518,-0.75199 -0.003,-1.12302 0.1119,-0.33905 0.65661,-0.87355 0.97054,-0.95234 0.60428,-0.15167 0.8639,0.49348 0.29365,0.72969 -0.38759,0.16054 -0.58173,0.46801 -0.58173,0.92129 0,0.21724 -0.0457,0.4407 -0.1016,0.49658 -0.15921,0.15921 -0.47542,0.11972 -0.57813,-0.0722 z m -3.33589,-0.55183 c -0.0732,-0.0732 -0.1339,-0.25416 -0.13493,-0.40217 -0.002,-0.34379 -0.20917,-0.60095 -0.61747,-0.76796 -0.29243,-0.11962 -0.32049,-0.15837 -0.29633,-0.40931 0.0243,-0.2526 0.0544,-0.27949 0.33909,-0.30316 0.67164,-0.0558 1.25715,0.5267 1.32259,1.31588 0.0323,0.38979 0.0119,0.49335 -0.11556,0.58656 -0.20265,0.14819 -0.33463,0.14292 -0.49739,-0.0198 z m -3.33636,-1.60549 c -1.70531,-0.37015 -2.81499,-2.00707 -2.56366,-3.78177 0.042,-0.2967 0.16229,-0.72219 0.26728,-0.94553 0.40155,-0.85426 1.56869,-1.83241 1.92227,-1.61102 0.0816,0.0511 0.15976,0.20488 0.17362,0.3417 0.0215,0.21238 -0.0235,0.27612 -0.30743,0.43572 -1.15171,0.6473 -1.65346,2.18245 -1.08983,3.33448 0.41313,0.8444 1.10362,1.36524 2.01892,1.52287 0.29616,0.051 0.5861,0.13071 0.64431,0.17711 0.16416,0.13088 0.12519,0.37914 -0.0823,0.52451 -0.22112,0.15487 -0.278,0.15498 -0.98314,0.002 z m 9.35056,0.0199 c -0.1,-0.0731 -0.14091,-0.19359 -0.12201,-0.35919 0.027,-0.23647 0.0578,-0.25449 0.6053,-0.3533 1.07836,-0.19463 1.83359,-0.78266 2.17411,-1.6928 0.43824,-1.17129 -0.0218,-2.48591 -1.10264,-3.15096 -0.31466,-0.19361 -0.42068,-0.30977 -0.42068,-0.46093 0,-0.36592 0.23652,-0.45589 0.6985,-0.2657 0.12912,0.0532 0.14822,0.008 0.14859,-0.35022 2.3e-4,-0.22618 -0.0651,-0.59402 -0.14518,-0.81744 -0.16977,-0.47365 -0.0955,-0.67892 0.26115,-0.72144 0.20149,-0.024 0.25041,0.0256 0.44593,0.45271 0.19802,0.43254 0.21597,0.55585 0.18256,1.25452 -0.0368,0.77 -0.0353,0.7773 0.24898,1.17294 0.57114,0.79499 0.8018,2.06412 0.52987,2.91551 -0.40388,1.26456 -1.45694,2.19255 -2.72076,2.39762 -0.66591,0.10806 -0.60449,0.10973 -0.78372,-0.0213 z m -8.75498,-1.93909 c -0.0559,-0.0559 -0.1016,-0.24119 -0.1016,-0.41179 0,-0.33716 -0.32558,-0.75661 -0.58728,-0.75661 -0.19295,0 -0.34406,-0.16733 -0.34406,-0.381 0,-0.41384 0.42682,-0.49612 0.97194,-0.18738 0.43175,0.24453 0.71817,0.74175 0.72,1.24995 0.002,0.42142 -0.10621,0.58843 -0.3796,0.58843 -0.0978,0 -0.22352,-0.0457 -0.2794,-0.1016 z m 8.91253,-0.12503 c -0.23427,-0.23426 -0.13894,-1.10865 0.1642,-1.50608 0.2891,-0.37902 0.69096,-0.63721 0.99246,-0.63764 0.48749,-7e-4 0.54126,0.56808 0.0721,0.76242 -0.39647,0.16423 -0.59087,0.46859 -0.59087,0.92508 0,0.56745 -0.30704,0.78705 -0.63787,0.45622 z m -17.6332,-0.89096 c -0.0559,-0.0559 -0.1016,-0.18161 -0.1016,-0.2794 0,-0.34563 0.13929,-0.381 1.50041,-0.381 h 1.29722 l 0.0963,0.21133 c 0.0796,0.17461 0.0696,0.2408 -0.0573,0.381 -0.14035,0.15507 -0.26025,0.16967 -1.3935,0.16967 -0.85151,0 -1.27177,-0.0318 -1.34155,-0.1016 z m 23.876,0 c -0.0559,-0.0559 -0.1016,-0.18161 -0.1016,-0.2794 0,-0.34494 0.1402,-0.381 1.48167,-0.381 1.3153,0 1.48166,0.0392 1.48166,0.34956 0,0.35762 -0.20111,0.41244 -1.51311,0.41244 -0.85702,0 -1.2788,-0.0318 -1.34862,-0.1016 z m -17.45515,-3.49289 c -0.25583,-0.30826 0.1165,-1.47229 0.67406,-2.10731 0.19036,-0.21682 0.25416,-0.37312 0.25416,-0.62276 0,-1.34066 1.1444,-2.48069 2.49019,-2.48069 0.24852,0 0.61701,0.0583 0.81887,0.12949 0.53075,0.18726 0.63621,0.41257 0.33438,0.7144 -0.1556,0.1556 -0.18972,0.15838 -0.51865,0.0423 -0.45288,-0.15979 -0.84931,-0.15747 -1.24368,0.007 -0.92566,0.38667 -1.35392,1.41748 -0.95445,2.29734 0.18118,0.39907 0.14851,0.67364 -0.0891,0.74907 -0.19005,0.0603 -0.49886,-0.0236 -0.49886,-0.13561 0,-0.0434 -0.0347,-0.079 -0.0771,-0.079 -0.12597,0 -0.44006,0.72776 -0.50177,1.1626 -0.0531,0.37423 -0.0763,0.4056 -0.31792,0.42923 -0.15888,0.0155 -0.30335,-0.026 -0.37008,-0.1064 z m -3.15695,-1.66457 c -0.9522,-0.90507 -1.16417,-1.14948 -1.16417,-1.34233 0,-0.31793 0.19885,-0.47817 0.45088,-0.36334 0.10553,0.0481 0.69495,0.5721 1.30983,1.16447 1.11725,1.07636 1.26489,1.30154 1.01636,1.55008 -0.22819,0.22819 -0.47162,0.0759 -1.6129,-1.00888 z m 18.44166,0.94721 c -0.087,-0.0961 -0.12694,-0.22886 -0.0971,-0.32275 0.0477,-0.15019 2.13151,-2.18152 2.39898,-2.33853 0.19531,-0.11465 0.529,0.0795 0.529,0.3078 0,0.25419 -2.25873,2.51675 -2.5125,2.51675 -0.0938,0 -0.23708,-0.0735 -0.31834,-0.16327 z m -3.41392,-0.612 c -0.14261,-0.1426 -0.13228,-0.36615 0.0315,-0.68293 0.30772,-0.59506 0.0611,-1.62478 -0.48654,-2.03176 -0.53985,-0.40117 -1.10811,-0.49642 -1.70032,-0.285 -0.26586,0.0949 -0.34104,0.0936 -0.48683,-0.008 -0.0948,-0.0664 -0.17241,-0.21288 -0.17241,-0.32546 0,-0.33733 0.4204,-0.50399 1.27,-0.50345 0.61547,3.9e-4 0.78206,0.0332 1.15062,0.22666 0.50841,0.26687 0.92442,0.71429 1.1611,1.24879 0.37493,0.8467 0.0928,2.3787 -0.44965,2.4421 -0.11675,0.0136 -0.25962,-0.0225 -0.3175,-0.0804 z m -8.69584,-0.49132 c -0.11335,-0.12524 -0.13628,-0.24006 -0.0935,-0.4681 0.13025,-0.69428 0.60558,-1.15721 1.29457,-1.26079 0.31605,-0.0475 0.37316,-0.0298 0.49285,0.15287 0.18039,0.27531 0.0482,0.52324 -0.32045,0.60123 -0.36004,0.0762 -0.63413,0.33467 -0.70459,0.66454 -0.10558,0.49432 -0.38501,0.62393 -0.66888,0.31025 z m 6.5763,0.0826 c -0.43478,-0.10301 -0.94378,-0.58374 -0.94715,-0.89455 -0.005,-0.44 0.41997,-0.49348 0.8223,-0.10352 0.22848,0.22145 0.34158,0.2694 0.5967,0.25298 1.07727,-0.0693 0.98948,-0.088 1.01877,0.21629 0.0244,0.25347 -0.004,0.29085 -0.33866,0.44264 -0.38277,0.17371 -0.68655,0.19643 -1.15196,0.0862 z"
           style="fill:#000000"
           id="path1-1" /></g></g></g></svg>
