<?xml version="1.0" encoding="UTF-8" standalone="no"?>
<!-- Created with Inkscape (http://www.inkscape.org/) -->

<svg
   width="164.35023mm"
   height="164.2543mm"
   viewBox="0 0 164.35023 164.2543"
   version="1.1"
   id="svg1"
   xml:space="preserve"
   inkscape:version="1.3.2 (091e20e, 2023-11-25, custom)"
   sodipodi:docname="people-org.svg"
   xmlns:inkscape="http://www.inkscape.org/namespaces/inkscape"
   xmlns:sodipodi="http://sodipodi.sourceforge.net/DTD/sodipodi-0.dtd"
   xmlns="http://www.w3.org/2000/svg"
   xmlns:svg="http://www.w3.org/2000/svg"><sodipodi:namedview
     id="namedview1"
     pagecolor="#ffffff"
     bordercolor="#000000"
     borderopacity="0.25"
     inkscape:showpageshadow="2"
     inkscape:pageopacity="0.0"
     inkscape:pagecheckerboard="0"
     inkscape:deskcolor="#d1d1d1"
     inkscape:document-units="mm"
     showgrid="false"
     inkscape:zoom="1.0449706"
     inkscape:cx="105.74461"
     inkscape:cy="176.56"
     inkscape:window-width="2560"
     inkscape:window-height="1369"
     inkscape:window-x="2552"
     inkscape:window-y="-8"
     inkscape:window-maximized="1"
     inkscape:current-layer="layer3" /><defs
     id="defs1" /><g
     inkscape:groupmode="layer"
     id="layer3"
     inkscape:label="Layer 2"><ellipse
       style="fill:#b9ada2;fill-rule:evenodd;stroke-width:2.4;fill-opacity:1"
       id="path1"
       cx="63.689362"
       cy="47.744068"
       rx="19.612423"
       ry="17.623955" /><path
       style="fill:#618914;fill-opacity:1;fill-rule:evenodd;stroke-width:2.4"
       d="m 63.689361,77.794754 14.928284,-5.000638 15.888107,8.988491 C 89.294116,91.910484 76.549871,98.556903 65.198209,100.39258 48.993605,98.493604 39.435421,91.783886 32.345907,82.732096 l 15.191814,-9.494885 z"
       id="path2"
       sodipodi:nodetypes="ccccccc" /><path
       id="path4"
       style="fill:#3b3b3b;fill-opacity:1;fill-rule:evenodd;stroke-width:2.4"
       d="M 63.689362,3.2137472 C 31.256631,3.2135402 2.8138724,31.600408 2.8140125,65.368023 2.8141477,99.135435 31.638026,125.24321 64.070562,125.24301 96.502896,125.24292 125.57966,99.135225 125.57979,65.368023 125.57993,31.600618 96.121891,3.2138369 63.689362,3.2137472 Z M 60.388381,16.570504 c 2.049546,0.01658 9.03259,0.04541 11.05893,0.338489 23.491094,3.398742 43.402889,25.085316 39.946329,47.451923 l -0.57936,9.661261 C 106.89555,96.319767 80.389605,115.17325 56.934758,111.55457 33.479978,107.93601 12.668241,81.579039 16.355993,59.245898 19.677008,39.134827 38.992148,16.396412 60.388381,16.570504 Z"
       sodipodi:nodetypes="cscscccccccc" /><rect
       style="fill:#3b3b3b;fill-opacity:1;fill-rule:evenodd;stroke-width:2.75845"
       id="rect4"
       width="25.332628"
       height="50.781956"
       x="-13.309355"
       y="169.47931"
       rx="3.7979538"
       ry="6.3550687"
       transform="rotate(-45)" /></g><g
     inkscape:label="Layer 1"
     inkscape:groupmode="layer"
     id="layer1"
     transform="translate(984.77322,1165.7194)"><path
       d="m -842.77197,-1001.9102 c -0.75251,-0.2789 -1.8836,-0.8673 -2.51354,-1.3075 -1.9715,-1.3777 -27.09128,-26.777 -27.71082,-28.0191 -0.7244,-1.4524 -1.34806,-3.8727 -1.34806,-5.2315 0,-0.5926 0.17185,-1.7284 0.38189,-2.5241 l 0.38188,-1.4467 -4.81097,-4.8287 c -2.64604,-2.6558 -4.93125,-4.8267 -5.07824,-4.8244 -0.147,0 -1.45789,0.7893 -2.9131,1.7488 -1.45521,0.9595 -4.43177,2.6207 -6.61459,3.6915 -24.67607,12.1049 -54.60606,6.9242 -73.69663,-12.7565 -9.94996,-10.2576 -15.78503,-22.3817 -17.7464,-36.8734 -0.49636,-3.6675 -0.42518,-12.3934 0.13273,-16.2719 1.99254,-13.852 7.89805,-25.9482 17.48631,-35.8171 5.31838,-5.4741 10.7887,-9.4668 17.57584,-12.8285 8.81488,-4.366 18.13225,-6.5201 28.20232,-6.5201 10.04184,0 19.26231,2.1242 28.12025,6.4782 19.44337,9.5572 32.24782,27.4676 35.28044,49.3489 0.4491,3.2405 0.45092,12.6149 0.003,15.875 -1.36897,9.9657 -4.68561,18.9677 -9.95468,27.0189 l -1.66549,2.5449 4.93216,4.9267 4.93216,4.9267 1.05197,-0.2907 c 0.57859,-0.1598 2.13851,-0.2431 3.4665,-0.185 4.32638,0.1892 3.79758,-0.2311 19.31496,15.3521 12.47094,12.5239 13.57092,13.7009 14.24288,15.2406 1.39919,3.206 1.13931,7.341 -0.63456,10.0966 -0.42465,0.6597 -3.06965,3.4844 -5.87776,6.2771 -6.16942,6.1356 -6.76727,6.4982 -10.92649,6.6254 -2.10114,0.064 -2.92751,-0.024 -4.01404,-0.4262 z m 5.15365,-4.836 c 1.10528,-0.2724 1.7755,-0.8318 6.10279,-5.0932 3.04628,-3 5.04441,-5.1824 5.35201,-5.8456 0.59983,-1.2933 0.64111,-3.2531 0.0963,-4.5725 -0.5243,-1.2699 -25.43634,-26.2988 -26.97822,-27.1049 -1.34474,-0.703 -3.60297,-0.7413 -4.89479,-0.083 -1.09461,0.5578 -8.96452,8.2493 -10.08085,9.8523 -0.94733,1.3604 -1.22111,3.0704 -0.76413,4.7726 0.3132,1.1666 1.29705,2.2235 13.19847,14.1782 7.07303,7.1047 13.21646,13.1057 13.65208,13.3354 1.69014,0.8916 2.53091,1.0008 4.31633,0.5608 z m -73.88283,-37.404 c 14.02517,-2.3746 26.16732,-9.3509 35.4259,-20.3542 6.89591,-8.1954 11.20305,-17.7359 13.02528,-28.8514 0.64513,-3.9353 0.64721,-13.3331 0.004,-17.2941 -0.97835,-6.0233 -2.57186,-11.1438 -5.11622,-16.4403 -2.9883,-6.2206 -5.92664,-10.4743 -10.61574,-15.3677 -22.33055,-23.3038 -59.04055,-24.2254 -82.4507,-2.0701 -16.69074,15.7961 -22.58292,39.3338 -15.32045,61.2012 7.66137,23.0686 29.34468,39.1995 53.65382,39.9149 3.23934,0.095 8.47324,-0.2438 11.39428,-0.7383 z m -13.37866,-7.1671 c -5.30349,-0.4844 -11.45292,-1.9964 -15.96519,-3.9255 -22.37629,-9.5664 -34.77857,-33.3952 -29.80086,-57.2571 3.92971,-18.8381 18.61405,-34.0336 37.3411,-38.6411 4.65905,-1.1463 7.15378,-1.4403 12.26141,-1.4453 5.23726,-0.01 8.82651,0.4675 13.66688,1.7998 8.18948,2.254 15.08945,6.1942 21.33874,12.1853 7.71047,7.392 12.54227,16.108 14.74163,26.5923 0.94504,4.5049 1.18959,12.1226 0.53847,16.7729 -1.64316,11.7357 -6.65164,21.6003 -15.13997,29.8195 -9.20251,8.9108 -20.8909,13.7865 -33.82283,14.1089 -2.18282,0.054 -4.50454,0.05 -5.15938,-0.01 z m 9.61453,-5.5259 c 7.50226,-0.9835 14.34926,-3.664 20.61389,-8.0699 3.00435,-2.113 8.04847,-7.0519 10.21249,-9.9996 4.42769,-6.031 7.4426,-13.4491 8.52493,-20.9754 0.41217,-2.866 0.41217,-9.2673 0,-12.1334 -1.08386,-7.5369 -4.11315,-14.9838 -8.53247,-20.9754 -2.19617,-2.9775 -7.22459,-7.9052 -10.20379,-9.9995 -14.54675,-10.226 -33.08328,-11.2382 -48.58091,-2.6528 -5.28751,2.9292 -11.21029,8.2339 -14.78955,13.2461 -2.15853,3.0228 -5.18991,9.0002 -6.2793,12.3819 -1.69263,5.2544 -1.97086,7.2401 -1.97086,14.0664 0,5.4401 0.0735,6.5541 0.58758,8.9071 0.91904,4.2064 2.02574,7.322 4.02578,11.3336 3.01976,6.0568 7.00309,11.0304 12.14973,15.1702 6.97348,5.6093 14.69823,8.7725 24.23108,9.9224 2.07739,0.2506 7.28861,0.1352 10.0114,-0.2217 z m -9.34995,-5.8455 c -11.85624,-1.4162 -21.87112,-7.1277 -28.27745,-16.1268 -3.08494,-4.3334 -3.08119,-4.7867 0.0654,-7.9218 2.28759,-2.2792 5.4101,-4.4873 8.59633,-6.0789 2.23258,-1.1152 7.78144,-3.0435 8.7748,-3.0493 0.38281,0 1.53606,0.6 2.69865,1.4092 2.31781,1.6134 4.38663,2.6027 6.83685,3.2697 2.31835,0.631 7.41115,0.6339 9.77205,0.01 2.16782,-0.577 5.56599,-2.2321 7.28162,-3.5467 1.10598,-0.8474 1.50837,-1.0042 2.50796,-0.9767 1.53504,0.042 5.56818,1.4228 8.59493,2.9425 5.63273,2.8281 10.98424,7.4975 10.98424,9.5843 0,1.6154 -4.64009,7.7448 -8.1467,10.7616 -5.44636,4.6855 -11.66328,7.7395 -18.54911,9.1119 -2.45071,0.4885 -9.11829,0.8568 -11.13961,0.6153 z m 10.84792,-5.8932 c 6.3798,-1.4753 11.59692,-4.2872 16.23092,-8.748 2.35797,-2.2698 4.67116,-5.0203 4.67116,-5.5541 0,-0.4836 -4.09121,-3.548 -6.26742,-4.6944 -1.13682,-0.5989 -3.09314,-1.4738 -4.34736,-1.9441 l -2.28042,-0.8552 -2.01907,1.2257 c -4.29247,2.6057 -8.30303,3.7104 -13.39614,3.6901 -5.0245,-0.02 -9.55468,-1.36 -13.79322,-4.0798 l -1.23741,-0.7941 -1.67896,0.5528 c -2.87278,0.9457 -6.87611,3.0828 -9.15343,4.8863 -1.20055,0.9508 -2.18282,1.8565 -2.18282,2.0127 0,0.5344 2.31426,3.2853 4.66351,5.5433 5.396,5.1866 11.56893,8.1403 19.54587,9.3528 1.91517,0.2911 9.04628,-0.086 11.24479,-0.594 z m -9.87461,-27.5607 c -10.79052,-1.2905 -18.96497,-10.5243 -18.96497,-21.4226 0,-9.8795 6.58694,-18.3494 16.27187,-20.9233 2.94719,-0.7833 7.6255,-0.7848 10.58334,0 9.74343,2.574 16.27187,10.97 16.27187,20.9267 0,6.6681 -2.79284,12.5548 -7.9375,16.7306 -4.44544,3.6082 -10.54279,5.3715 -16.22461,4.692 z m 5.85087,-5.4346 c 3.30277,-0.674 5.66461,-1.9628 8.15603,-4.4506 3.37419,-3.3691 4.85133,-6.852 4.85963,-11.4582 0.005,-2.8568 -0.36431,-4.5073 -1.60916,-7.1885 -1.37932,-2.9709 -4.43547,-6.0785 -7.38276,-7.507 -4.06543,-1.9705 -8.32771,-2.2354 -12.55007,-0.7801 -2.69243,0.9281 -4.68865,2.2392 -6.72748,4.4187 -2.76389,2.9546 -4.27037,6.8273 -4.27037,10.9777 0,4.5526 1.54094,8.2032 4.87003,11.5374 1.63245,1.635 2.61309,2.3697 4.12581,3.0912 3.51047,1.6742 6.8641,2.1072 10.52834,1.3594 z m 50.58967,53.2146 3.19797,-3.1609 -4.27958,-4.2855 -4.27958,-4.2855 -3.31324,3.3012 -3.31324,3.3013 4.20594,4.2121 c 2.31327,2.3167 4.29095,4.182 4.39485,4.1452 0.10391,-0.037 1.628,-1.4894 3.38688,-3.2279 z"
       style="fill:#000000"
       id="path1-9" /></g></svg>
