<?xml version="1.0" encoding="UTF-8" standalone="no"?>
<!-- Created with Inkscape (http://www.inkscape.org/) -->

<svg
   width="89.324821mm"
   height="86.669632mm"
   viewBox="0 0 89.324821 86.669632"
   version="1.1"
   id="svg1"
   xml:space="preserve"
   inkscape:version="1.3.2 (091e20e, 2023-11-25, custom)"
   sodipodi:docname="wellness.svg"
   xmlns:inkscape="http://www.inkscape.org/namespaces/inkscape"
   xmlns:sodipodi="http://sodipodi.sourceforge.net/DTD/sodipodi-0.dtd"
   xmlns:xlink="http://www.w3.org/1999/xlink"
   xmlns="http://www.w3.org/2000/svg"
   xmlns:svg="http://www.w3.org/2000/svg"><sodipodi:namedview
     id="namedview1"
     pagecolor="#ffffff"
     bordercolor="#000000"
     borderopacity="0.25"
     inkscape:showpageshadow="2"
     inkscape:pageopacity="0.0"
     inkscape:pagecheckerboard="0"
     inkscape:deskcolor="#d1d1d1"
     inkscape:document-units="mm"
     showgrid="false"
     inkscape:zoom="5.1200001"
     inkscape:cx="280.95703"
     inkscape:cy="126.85547"
     inkscape:window-width="2560"
     inkscape:window-height="1369"
     inkscape:window-x="2552"
     inkscape:window-y="-8"
     inkscape:window-maximized="1"
     inkscape:current-layer="layer1" /><g
     inkscape:groupmode="layer"
     id="layer4"
     inkscape:label="Layer 2"><path
       style="fill:#b9ada2;fill-opacity:1;fill-rule:evenodd;stroke-width:2.4"
       id="path2"
       sodipodi:type="arc"
       sodipodi:cx="17.001055"
       sodipodi:cy="12.439653"
       sodipodi:rx="11.38114"
       sodipodi:ry="11.381316"
       sodipodi:start="5.878884"
       sodipodi:end="5.8788298"
       sodipodi:arc-type="slice"
       d="M 27.464618,7.9625111 A 11.38114,11.381316 0 0 1 21.478269,22.903318 11.38114,11.381316 0 0 1 6.5376126,16.917079 11.38114,11.381316 0 0 1 12.523557,1.9761097 11.38114,11.381316 0 0 1 27.464376,7.961944 l -10.463321,4.477709 z" /><path
       style="fill:#618914;fill-opacity:1;fill-rule:evenodd;stroke-width:2.4"
       d="m 25.199115,29.012184 c 5.580945,-2.077509 11.802012,-5.90358 15.331458,-10.329152 l 2.512042,-9.2754145 4.26085,-4.2329803 4.228748,3.733447 -1.043938,13.2849138 c -2.21128,4.136317 -5.825864,7.718473 -10.519542,10.426676 L 57.64695,81.234972 53.714496,85.202624 48.742058,84.16979 35.075833,61.246546 l -9.991077,22.149196 -5.334293,2.025253 -3.395247,-4.42791 5.659727,-20.759716 -6.080124,-17.564806 -4.514328,5.184573 8.367115,7.932724 0.331863,4.373777 L 15.19973,61.817518 3.3141943,54.271423 1.1403481,51.031211 2.0710055,47.068761 11.774421,35.585304 Z"
       id="path3"
       sodipodi:nodetypes="ccccccccccccccccccccccccc" /><path
       style="fill:#3b3b3b;fill-opacity:1;fill-rule:evenodd;stroke-width:2.4"
       d="m 71.894879,32.468224 c 1.879955,-1.880305 5.483938,-4.023027 9.025713,-4.291457 3.154684,1.087317 5.965634,3.762301 7.126234,6.463959 l -0.972039,7.080705 -15.179908,14.768488 -14.17415,-14.193123 -1.829231,-8.205305 5.909059,-5.700178 c 3.988202,-0.103496 8.214371,2.196606 10.094322,4.076911 z"
       id="path4"
       sodipodi:nodetypes="ccccccccc" /></g><g
     inkscape:label="Layer 1"
     inkscape:groupmode="layer"
     id="layer1"
     transform="translate(-169.06874,711.72919)"><g
       id="layer-MC0"
       inkscape:label="Main Layer"
       transform="matrix(0.26458333,0,0,0.26458333,-730.30739,-276.44074)"
       style="stroke-width:1.00157481;stroke-dasharray:none;fill-rule:evenodd;fill:none"><path
         id="path137"
         d="M 0,0 17.235,-49.79 1.698,-104.688 c -2.001,-7.069 2.067,-14.432 9.118,-16.5 6.422,-1.883 13.249,1.262 15.989,7.368 l 27.453,61.158 36.365,-61.985 c 3.339,-5.692 10.27,-8.185 16.469,-5.922 7.12,2.597 10.765,10.493 8.125,17.597 L 68.108,23.753 c -1.331,3.581 0.587,7.54 4.218,8.726 11.783,3.849 34.017,17.246 28.58,63.22 -0.716,6.05 -5.895,10.583 -11.987,10.583 -6.64,0 -12.035,-5.359 -12.078,-11.999 C 76.696,72.11 62.861,52.335 42.081,44.6 L 10.441,32.822 C -3.468,27.644 -15.624,18.626 -24.614,6.817 l -14.685,-19.29 c -4.977,-6.537 -3.357,-15.926 3.524,-20.417 l 30.452,-19.876 c 5.66,-3.694 13.225,-2.292 17.185,3.185 4.291,5.934 2.67,14.259 -3.533,18.15 l -23.649,14.834 z"
         style="fill:none;stroke:#0d0000;stroke-width:6.80314986;stroke-linecap:round;stroke-linejoin:round;stroke-miterlimit:10;stroke-dasharray:none;stroke-opacity:1;fill-rule:evenodd;fill-opacity:1"
         transform="matrix(1.3333333,0,0,-1.3333333,3459.443,-1483.9177)"
         clip-path="url(#clipPath138-5)" /><path
         id="path139"
         d="m 0,0 c 0,-17.818 -14.444,-32.262 -32.261,-32.262 -17.818,0 -32.262,14.444 -32.262,32.262 0,17.818 14.444,32.262 32.262,32.262 C -14.444,32.262 0,17.818 0,0 Z"
         style="fill:none;stroke:#260000;stroke-width:6.80314986;stroke-linecap:round;stroke-linejoin:round;stroke-miterlimit:10;stroke-dasharray:none;stroke-opacity:1;fill-opacity:1;fill-rule:evenodd"
         transform="matrix(1.3333333,0,0,-1.3333333,3506.4882,-1598.1687)"
         clip-path="url(#clipPath140-3)" /><path
         id="path143"
         d="m 0,0 h 16.683 l 6.838,15.611 16.66,-27.96 L 47.613,0 H 58.32"
         style="fill:none;stroke:#ffffff;stroke-width:6.80314986;stroke-linecap:round;stroke-linejoin:round;stroke-miterlimit:10;stroke-dasharray:none;stroke-opacity:1;fill-opacity:1;fill-rule:evenodd"
         transform="matrix(1.3333333,0,0,-1.3333333,3617.374,-1485.3228)"
         clip-path="url(#clipPath144-2)" /><path
         id="path141"
         d="m 0,0 -39.376,39.377 c -9.402,9.402 -9.402,24.644 10e-4,34.046 9.401,9.401 24.645,9.402 34.046,0 L 0,68.093 l 5.329,5.33 c 9.401,9.402 24.645,9.402 34.046,0 9.402,-9.402 9.402,-24.644 10e-4,-34.046 z"
         style="fill:none;stroke:#000000;stroke-width:6.80314986;stroke-linecap:round;stroke-linejoin:round;stroke-miterlimit:10;stroke-dasharray:none;stroke-opacity:1;fill-opacity:1;fill-rule:evenodd"
         transform="matrix(1.3333333,0,0,-1.3333333,3670.9456,-1431.6795)"
         clip-path="url(#clipPath142-5)" /></g></g></svg>
