<?xml version="1.0" encoding="UTF-8" standalone="no"?>
<!-- Created with Inkscape (http://www.inkscape.org/) -->

<svg
   width="176.38889mm"
   height="176.3889mm"
   viewBox="0 0 176.38889 176.3889"
   version="1.1"
   id="svg1"
   xml:space="preserve"
   inkscape:version="1.3.2 (091e20e, 2023-11-25, custom)"
   sodipodi:docname="cookies.svg"
   xmlns:inkscape="http://www.inkscape.org/namespaces/inkscape"
   xmlns:sodipodi="http://sodipodi.sourceforge.net/DTD/sodipodi-0.dtd"
   xmlns="http://www.w3.org/2000/svg"
   xmlns:svg="http://www.w3.org/2000/svg"><sodipodi:namedview
     id="namedview1"
     pagecolor="#ffffff"
     bordercolor="#000000"
     borderopacity="0.25"
     inkscape:showpageshadow="2"
     inkscape:pageopacity="0.0"
     inkscape:pagecheckerboard="0"
     inkscape:deskcolor="#d1d1d1"
     inkscape:document-units="mm"
     inkscape:zoom="1.0449705"
     inkscape:cx="333.50223"
     inkscape:cy="333.50223"
     inkscape:window-width="2560"
     inkscape:window-height="1369"
     inkscape:window-x="2552"
     inkscape:window-y="-8"
     inkscape:window-maximized="1"
     inkscape:current-layer="layer1" /><defs
     id="defs1" /><g
     inkscape:label="Layer 1"
     inkscape:groupmode="layer"
     id="layer1"
     transform="translate(-16.755682,-60.305555)"><path
       d="m 104.95012,60.305555 c 6.2965,0 12.51186,0.660903 18.57244,1.960399 5.1212,1.098082 6.99533,7.429741 3.29687,11.13837 -4.09999,4.111264 -6.43528,9.643749 -6.43528,15.564425 0,10.322578 7.15419,19.201541 17.07301,21.486391 3.26377,0.75183 5.45055,3.82453 5.09168,7.15451 -0.0772,0.71641 -0.11608,1.46052 -0.11608,2.22715 0,12.17712 9.8715,22.04862 22.04861,22.04862 6.40823,0 12.35848,-2.74021 16.52346,-7.4496 3.7846,-4.27928 10.84887,-2.07151 11.52317,3.6013 0.41,3.44923 0.61657,6.94273 0.61657,10.46288 0,48.70845 -39.486,88.19445 -88.19445,88.19445 -48.70844,0 -88.194438,-39.486 -88.194438,-88.19445 0,-48.708447 39.485998,-88.194445 88.194438,-88.194445 z m 0,13.229167 c -41.402174,0 -74.965271,33.563098 -74.965271,74.965278 0,41.40218 33.563097,74.96528 74.965271,74.96528 39.12941,0 71.25676,-29.97934 74.66611,-68.22207 l 0.1673,-2.25894 0.0617,-1.38864 -1.70648,0.77664 c -2.91566,1.22413 -6.00755,2.05892 -9.20365,2.46273 l -2.41547,0.22137 -2.0383,0.0582 c -17.69248,0 -32.34299,-13.02424 -34.88683,-30.008 l -0.21959,-1.7707 -0.12726,-1.647 -1.27802,-0.53232 c -11.3258,-5.0881 -19.3165,-15.9072 -20.62538,-28.522044 l -0.1458,-1.905202 -0.0435,-1.760555 c 0,-3.941175 0.65079,-7.781948 1.88375,-11.396777 l 0.80909,-2.140778 0.74675,-1.675987 -2.4365,-0.153198 z m 26.45834,110.243058 c 4.87084,0 8.81944,3.9486 8.81944,8.81945 0,4.87084 -3.9486,8.81944 -8.81944,8.81944 -4.87085,0 -8.81945,-3.9486 -8.81945,-8.81944 0,-4.87085 3.9486,-8.81945 8.81945,-8.81945 z m -61.736111,-8.81944 c 4.870845,0 8.819444,3.94859 8.819444,8.81944 0,4.87085 -3.948599,8.81945 -8.819444,8.81945 -4.870846,0 -8.819445,-3.9486 -8.819445,-8.81945 0,-4.87085 3.948599,-8.81944 8.819445,-8.81944 z m 35.277771,-35.27779 c 4.87085,0 8.81945,3.94861 8.81945,8.81945 0,4.87085 -3.9486,8.81945 -8.81945,8.81945 -4.87084,0 -8.819438,-3.9486 -8.819438,-8.81945 0,-4.87084 3.948598,-8.81945 8.819438,-8.81945 z M 60.852904,113.22222 c 4.870844,0 8.819445,3.9486 8.819445,8.81945 0,4.87084 -3.948601,8.81944 -8.819445,8.81944 -4.870845,0 -8.819444,-3.9486 -8.819444,-8.81944 0,-4.87085 3.948599,-8.81945 8.819444,-8.81945 z"
       id="🎨-Color"
       style="fill:#ffffff;fill-rule:nonzero;stroke:none;stroke-width:8.81944;fill-opacity:1" /></g></svg>
