<?xml version="1.0" encoding="UTF-8" standalone="no"?>
<!-- Created with Inkscape (http://www.inkscape.org/) -->

<svg
   width="144"
   height="144"
   viewBox="0 0 38.1 38.1"
   version="1.1"
   id="svg1"
   xml:space="preserve"
   inkscape:export-filename="bitmap.png"
   inkscape:export-xdpi="64"
   inkscape:export-ydpi="64"
   inkscape:version="1.3.2 (091e20e, 2023-11-25, custom)"
   sodipodi:docname="favicon.svg"
   xmlns:inkscape="http://www.inkscape.org/namespaces/inkscape"
   xmlns:sodipodi="http://sodipodi.sourceforge.net/DTD/sodipodi-0.dtd"
   xmlns="http://www.w3.org/2000/svg"
   xmlns:svg="http://www.w3.org/2000/svg"><sodipodi:namedview
     id="namedview1"
     pagecolor="#ffffff"
     bordercolor="#000000"
     borderopacity="0.25"
     inkscape:showpageshadow="2"
     inkscape:pageopacity="0.0"
     inkscape:pagecheckerboard="0"
     inkscape:deskcolor="#d1d1d1"
     inkscape:document-units="px"
     showgrid="false"
     inkscape:zoom="5.911246"
     inkscape:cx="77.056512"
     inkscape:cy="70.628088"
     inkscape:window-width="2560"
     inkscape:window-height="1369"
     inkscape:window-x="-8"
     inkscape:window-y="-8"
     inkscape:window-maximized="1"
     inkscape:current-layer="g29" /><defs
     id="defs1"><inkscape:path-effect
       effect="fillet_chamfer"
       id="path-effect1"
       is_visible="true"
       lpeversion="1"
       nodesatellites_param="F,0,0,1,0,0,0,1 @ F,0,0,1,0,0,0,1 @ F,0,0,1,0,0,0,1 @ F,0,0,1,0,0,0,1 @ F,0,0,1,0,0,0,1 @ F,0,0,1,0,0,0,1 @ F,0,0,1,0,0,0,1 @ F,0,0,1,0,0,0,1"
       radius="0"
       unit="px"
       method="auto"
       mode="F"
       chamfer_steps="1"
       flexible="false"
       use_knot_distance="true"
       apply_no_radius="true"
       apply_with_radius="true"
       only_selected="false"
       hide_knots="false" /></defs><g
     inkscape:label="Layer 1"
     inkscape:groupmode="layer"
     id="layer1"
     transform="translate(9.8874622,-105.09186)"><g
       id="g29"
       transform="matrix(0.22035026,0,0,0.22035026,-18.26717,92.918227)"><path
         style="opacity:1;fill:#768e09;fill-opacity:1;stroke-width:0.743479"
         id="rect1"
         width="22.379658"
         height="15.92323"
         x="-1.97308"
         y="116.65338"
         sodipodi:type="rect"
         ry="2.8098347"
         transform="matrix(7.1159435,0,0,10.290977,58.896439,-1140.7101)"
         rx="4.4530959"
         d="M 2.4800159,116.65338 H 15.953482 c 2.467015,0 4.453096,1.25319 4.453096,2.80984 v 10.30356 c 0,1.55665 -1.986081,2.80983 -4.453096,2.80983 H 2.4800159 c -2.46701516,0 -4.4530959,-1.25318 -4.4530959,-2.80983 v -10.30356 c 0,-1.55665 1.98608074,-2.80984 4.4530959,-2.80984 z"
         inkscape:path-effect="#path-effect1" /><ellipse
         cx="124.5"
         cy="216.3"
         rx="37.799999"
         ry="1.9"
         fill="#1a1a18"
         opacity="0"
         id="ellipse25"
         style="display:inline;opacity:1;mix-blend-mode:normal;fill:#ffffff;fill-opacity:0.11849711;fill-rule:nonzero;stroke:none" /><path
         d="m 151.8,106.3 c -1.5,-6.2 -7,-17.3 -9.1,-17.4 -5.7,-0.4 -11.6,-0.1 -14.1,0 h -0.8 c -1.4,0.1 -2.2,0.9 -2.7,1.5 -0.8,0.9 -0.7,0.7 -1.4,0 -0.5,-0.6 -1.2,-1.3 -2.3,-1.4 h -0.3 c -2.2,-0.2 -8.8,-0.6 -14.9,0 -2.2,0.2 -7,9.6 -8.9,17.4 -0.4,1.6 -0.3,2.6 0.1,3.3 0.6,0.9 1.6,1.1 2.8,1.3 h 0.2 c 1.2,0.2 7.1,0.7 10.5,0.9 1,0 1.5,-1 2.5,-3 0.3,-0.5 0.6,-1.3 0.9,-1.8 0.4,0.5 0.9,1.4 1.3,2 1.2,2 1.9,3.1 2.9,3.1 2.1,0.1 3.9,0.2 5.7,0.2 1.8,0 3.4,0 5.4,-0.2 0.9,0 1.4,-1 2.5,-3.3 0.3,-0.6 0.7,-1.4 1,-2 0.3,0.5 0.7,1.3 1,1.8 1,2 1.6,3.2 2.7,3.2 h 1 c 4.7,-0.4 9.7,-0.8 10.9,-0.9 h 0.2 c 1.2,-0.2 2.2,-0.4 2.8,-1.3 0.5,-0.7 0.5,-1.7 0.1,-3.3 z"
         fill="#b9ada2"
         id="path25"
         style="fill:#ffffff;fill-opacity:1" /><path
         d="m 124.5,179.6 c -9.8,0 -29.3,-1.8 -32,-2.2 -2.7,-0.4 -5,-2 -6.3,-4.4 -1.3,-2.3 -1.3,-5 -0.2,-7.4 1.8,-3.8 2.3,-8.1 1.5,-13 -0.4,-2.8 0,-4.9 1.3,-6.3 1.7,-1.8 4.1,-1.5 4.4,-1.5 5.4,0.7 24.1,1.8 31.3,1.8 7.2,0 25.9,-1.2 31.3,-1.8 0.3,0 2.7,-0.3 4.4,1.5 1.3,1.4 1.8,3.5 1.3,6.3 -0.8,4.9 -0.3,9.3 1.5,13 1.1,2.4 1,5.1 -0.2,7.4 -1.3,2.4 -3.6,4 -6.3,4.4 -2.7,0.4 -22.2,2.2 -32,2.2 z m -31.9,-33 c -0.7,0 -1.8,0.2 -2.5,1 -0.9,0.9 -1.2,2.5 -0.8,4.8 0.8,5.2 0.3,10 -1.6,14.1 -0.9,1.8 -0.8,3.9 0.2,5.7 1,1.9 2.8,3.1 4.9,3.4 2.7,0.4 22,2.2 31.8,2.2 9.8,0 29.1,-1.8 31.8,-2.2 2.1,-0.3 3.9,-1.5 4.9,-3.4 1,-1.8 1,-3.9 0.2,-5.7 -1.9,-4.1 -2.5,-8.8 -1.6,-14.1 0.4,-2.2 0,-3.8 -0.8,-4.8 -0.9,-0.9 -2.3,-1 -2.9,-1 -5.4,0.7 -24.2,1.8 -31.5,1.8 -7.3,0 -26.1,-1.2 -31.5,-1.8 0,0 -0.2,0 -0.3,0 z"
         fill="#ffffff"
         id="path26"
         style="fill:#ffffff;fill-opacity:1" /><path
         d="m 124.5,143.6 c -8.4,0 -24.9,-1.4 -27.3,-1.7 -2.3,-0.3 -4.3,-1.7 -5.4,-3.8 -1.1,-2 -1.2,-4.4 -0.2,-6.4 1.5,-3.2 1.9,-6.9 1.3,-11 -0.5,-3.2 0.5,-5 1.4,-6 1.2,-1.3 2.9,-1.6 3.7,-1.5 4.4,0.6 18.4,1.9 26.6,1.9 8.2,0 21.5,-1.3 26.6,-1.9 0.8,-0.1 2.4,0.2 3.7,1.5 0.9,0.9 1.9,2.8 1.4,6 -0.7,4.1 -0.2,7.8 1.3,11 1,2.1 0.9,4.4 -0.2,6.4 -1.1,2.1 -3.1,3.4 -5.4,3.8 -2.4,0.3 -18.9,1.7 -27.3,1.7 z m -27,-28.5 c -0.4,0 -1.3,0.2 -2,0.9 -0.9,0.9 -1.2,2.4 -0.9,4.4 0.7,4.5 0.2,8.6 -1.4,12.1 -0.7,1.5 -0.7,3.3 0.1,4.8 0.8,1.5 2.3,2.6 4.1,2.8 2.3,0.3 18.7,1.7 27,1.7 8.3,0 24.7,-1.4 27,-1.7 1.8,-0.2 3.2,-1.3 4.1,-2.8 0.8,-1.5 0.9,-3.2 0.1,-4.8 -1.6,-3.5 -2.1,-7.6 -1.4,-12.1 0.3,-2 0,-3.5 -0.9,-4.4 -0.8,-0.8 -1.8,-0.9 -2.1,-0.9 -5.1,0.6 -19.3,1.9 -26.8,1.9 -7.5,0 -22.4,-1.3 -26.8,-1.9 0,0 0,0 0,0 z"
         fill="#ffffff"
         id="path27"
         style="fill:#ffffff;fill-opacity:1" /><path
         d="m 158.2,180.9 c -0.2,-0.2 -0.6,-0.6 -1.4,-0.5 -4.3,0.7 -17.2,1.8 -22.8,2.2 -2,0.1 -7.3,4.6 -9.6,6.6 -2.3,-2 -7.6,-6.5 -9.6,-6.6 -5.6,-0.4 -18.5,-1.5 -22.8,-2.2 -0.8,-0.1 -1.2,0.2 -1.4,0.5 -0.5,0.7 0,1.6 0.1,1.9 2.5,4.9 30.5,33.3 34,33.3 3.5,0 30.6,-27.9 33.3,-33.2 0.2,-0.4 0.7,-1.3 0.1,-2 z"
         fill="#b9ada2"
         id="path28"
         style="fill:#ffffff;fill-opacity:1" /><path
         d="m 124.5,65.2 c -0.8,0 -1.5,0.7 -1.5,1.3 v 16.1 c 0,0 0.3,3.6 1.5,3.6 1.2,0 1.5,-3.6 1.5,-3.6 V 66.5 c 0,-0.7 -0.8,-1.3 -1.5,-1.3 z"
         fill="#ffffff"
         id="path29"
         style="fill:#ffffff;fill-opacity:1" /></g></g></svg>
