<?xml version="1.0" encoding="UTF-8" standalone="no"?>
<svg
   version="1.1"
   id="svg1"
   sodipodi:docname="Pruefsiegel_ARGE.svg"
   width="816.66809"
   height="625.31671"
   inkscape:version="1.3.2 (091e20e, 2023-11-25, custom)"
   xmlns:inkscape="http://www.inkscape.org/namespaces/inkscape"
   xmlns:sodipodi="http://sodipodi.sourceforge.net/DTD/sodipodi-0.dtd"
   xmlns="http://www.w3.org/2000/svg"
   xmlns:svg="http://www.w3.org/2000/svg">
  <defs
     id="defs1" />
  <sodipodi:namedview
     id="namedview1"
     pagecolor="#ffffff"
     bordercolor="#000000"
     borderopacity="0.25"
     inkscape:showpageshadow="2"
     inkscape:pageopacity="0.0"
     inkscape:pagecheckerboard="0"
     inkscape:deskcolor="#d1d1d1"
     inkscape:zoom="0.80791667"
     inkscape:cx="350.90253"
     inkscape:cy="97.163486"
     inkscape:window-width="2560"
     inkscape:window-height="1369"
     inkscape:window-x="2552"
     inkscape:window-y="-8"
     inkscape:window-maximized="1"
     inkscape:current-layer="svg1" />
  <g
     transform="matrix(1.0725844,0,0,1.0725844,-191.47241,0)"
     id="g1">
    <path
       id="outer-ring"
       fill="#0f788b"
       d="m 470.015,0 c -160.99,0 -291.5,130.509 -291.5,291.5 0,160.993 130.51,291.5 291.5,291.5 160.99,0 291.5,-130.508 291.5,-291.5 C 761.515,130.509 631.005,0 470.015,0 m 0,482.096 c -105.264,0 -190.596,-85.332 -190.596,-190.596 0,-105.263 85.332,-190.595 190.596,-190.595 105.264,0 190.596,85.332 190.596,190.595 0,105.264 -85.332,190.596 -190.596,190.596" />
    <path
       id="center-background"
       fill="#0f788b"
       d="m 658.515,291.5 c 0,104.105 -84.395,188.5 -188.5,188.5 -104.105,0 -188.5,-84.395 -188.5,-188.5 0,-104.105 84.395,-188.5 188.5,-188.5 104.105,0 188.5,84.395 188.5,188.5" />
    <path
       id="ring-background"
       fill="#ffffff"
       d="m 470.015,18.5 c -150.773,0 -273,122.227 -273,273 0,150.773 122.227,273 273,273 150.773,0 273,-122.227 273,-273 0,-150.773 -122.226,-273 -273,-273 m 0,451.5 c -98.584,0 -178.5,-79.917 -178.5,-178.5 0,-98.583 79.916,-178.5 178.5,-178.5 98.582,0 178.5,79.917 178.5,178.5 0,98.583 -79.918,178.5 -178.5,178.5" />
    <path
       id="ring-text"
       fill="#0f788b"
       d="m 364.56,124.573 c -1.604,2.598 -4.379,5.68 -7.619,8.306 -11.906,9.646 -22.641,5.553 -32.066,-6.083 -9.34,-11.526 -9.492,-24.005 0.703,-32.266 3.715,-3.008 7.768,-4.994 11.508,-5.8 1.141,-0.276 2.012,0.316 2.248,1.33 l 0.834,3.68 c 0.279,1.07 -0.246,1.867 -1.344,2.2 -2.789,0.775 -5.275,1.68 -8.52,4.306 -5.775,4.679 -5.576,11.19 2.311,20.926 7.934,9.791 14.129,10.33 19.967,5.603 a 15.934,15.934 0 0 0 2.938,-3.122 l -8.205,-10.126 -4.654,3.772 c -0.822,0.669 -2.074,0.57 -2.711,-0.213 l -2.4,-2.965 c -0.637,-0.783 -0.473,-2.027 0.354,-2.696 l 10.078,-8.165 c 0.824,-0.668 2.076,-0.57 2.709,0.213 l 13.734,16.952 c 1.127,1.398 1.274,2.3 0.135,4.148 z m 33.102,-16.699 -21.68,11.087 c -0.943,0.483 -2.148,0.128 -2.607,-0.769 L 352.916,78.188 c -0.459,-0.897 -0.041,-2.082 0.902,-2.565 l 21.068,-10.776 c 0.945,-0.483 2.148,-0.128 2.607,0.769 l 1.703,3.334 c 0.459,0.897 0.043,2.081 -0.9,2.564 l -14.789,7.564 5.408,10.577 13.234,-6.77 c 0.945,-0.484 2.148,-0.128 2.607,0.77 l 1.541,3.013 c 0.459,0.897 0.076,2.145 -0.871,2.629 l -13.234,6.769 6.523,12.758 15.396,-7.875 c 0.943,-0.483 2.146,-0.128 2.605,0.77 l 1.838,3.59 c 0.469,0.898 0.053,2.082 -0.892,2.565 z m 17.347,-26.234 -5.982,1.696 4.85,17.112 c 0.273,0.97 -0.365,2.049 -1.389,2.339 l -4.891,1.385 c -1.02,0.29 -2.133,-0.294 -2.406,-1.264 l -12.25,-43.23 c -0.271,-0.969 0.365,-2.049 1.387,-2.338 l 12.627,-3.578 c 9.998,-2.833 16.855,1.062 19.252,9.513 2.392,8.452 -2.149,15.8 -11.198,18.365 z m -6.4,-20.639 -5.473,1.551 3.887,13.717 5.477,-1.551 c 4.377,-1.24 6.105,-4.873 4.969,-8.892 -1.219,-4.296 -4.262,-6.128 -8.86,-4.825 z m 65.51,32.187 -6.053,0.432 c -1.287,0.092 -2.297,-0.196 -2.936,-1.667 -1.814,-4.129 -3.467,-9.137 -5.785,-12.869 -1.979,-3.18 -4.441,-5.747 -8.377,-5.466 l -2.57,0.184 1.381,19.32 c 0.066,0.934 -0.777,1.861 -1.84,1.937 l -5.066,0.362 c -1.062,0.076 -2.029,-0.722 -2.098,-1.655 L 437.56,48.805 c -0.062,-0.934 0.779,-1.86 1.84,-1.936 l 13.543,-0.968 c 13.016,-0.93 16.205,6.494 16.562,11.45 0.42,5.89 -2.73,10.735 -9.229,12.427 -0.223,0.087 -0.441,0.176 -0.596,0.187 3.229,0.491 6.207,2.805 8.02,5.78 1.725,2.836 5.467,10.51 7.602,14.833 0.709,1.463 0.631,2.48 -1.183,2.61 z m -20.946,-39.796 -6.203,0.443 0.949,13.287 5.373,-0.384 c 4.766,-0.34 7.35,-3.557 7.057,-7.651 -0.215,-3.016 -2.484,-6.03 -7.176,-5.695 z M 496.58,96.389 C 485.392,94.756 480.514,88.295 481.976,78.248 l 4.535,-31.065 c 0.166,-1.14 1.021,-1.743 2.146,-1.579 l 5.104,0.746 c 1.275,0.186 1.869,0.854 1.682,2.137 l -4.473,30.639 c -0.885,6.056 0.76,9.497 6.389,10.319 5.631,0.821 8.523,-1.157 9.492,-7.783 l 4.502,-30.852 c 0.189,-1.282 0.947,-1.754 2.227,-1.567 l 5.104,0.744 c 1.125,0.165 1.771,0.987 1.604,2.127 l -4.533,31.065 c -1.488,10.188 -8.142,14.82 -19.175,13.21 z m -0.364,-53.175 c -2.627,-0.384 -4.502,-2.768 -4.127,-5.332 0.373,-2.565 2.842,-4.243 5.469,-3.859 2.701,0.395 4.588,2.708 4.213,5.272 -0.375,2.564 -2.854,4.313 -5.555,3.919 z m 16.063,2.345 c -2.627,-0.383 -4.502,-2.768 -4.129,-5.332 0.375,-2.565 2.844,-4.242 5.471,-3.859 2.701,0.395 4.588,2.707 4.213,5.272 -0.376,2.564 -2.856,4.313 -5.555,3.919 z m 46.904,25.225 -14.844,-5.35 -4.125,11.448 13.131,4.732 c 0.998,0.36 1.586,1.413 1.244,2.362 l -1.172,3.251 c -0.342,0.948 -1.492,1.452 -2.49,1.093 l -13.131,-4.732 -6.787,18.832 c -0.293,0.812 -1.252,1.232 -2.062,1.018 -0.117,0.11 -4.309,-1.246 -4.426,-1.365 -0.43,-0.154 -1.664,-0.753 -1.756,-1.169 -0.451,-0.315 -0.445,-1.002 -0.25,-1.544 l 15.234,-42.271 c 0.342,-0.948 1.49,-1.452 2.488,-1.093 l 21.479,7.742 c 1,0.359 1.562,1.481 1.221,2.43 l -1.27,3.523 c -0.335,0.949 -1.486,1.453 -2.484,1.093 z m 35.469,19.548 -8.938,-5.146 -19.473,33.824 c -0.502,0.873 -1.725,1.168 -2.645,0.639 l -4.471,-2.574 c -0.92,-0.529 -1.277,-1.732 -0.773,-2.605 L 577.821,80.646 568.883,75.5 c -0.922,-0.529 -1.381,-1.708 -0.879,-2.582 l 2.049,-3.557 c 0.502,-0.874 1.789,-1.131 2.709,-0.602 l 25.77,14.834 c 0.922,0.529 1.277,1.732 0.775,2.605 l -2.049,3.558 c -0.501,0.873 -1.686,1.105 -2.606,0.576 z m 3.951,55.991 -18.449,-15.888 c -0.805,-0.693 -0.932,-1.942 -0.271,-2.706 L 609.199,93.68 c 0.656,-0.764 1.912,-0.824 2.719,-0.131 l 17.934,15.441 c 0.807,0.693 0.932,1.941 0.271,2.705 l -2.443,2.838 c -0.656,0.764 -1.91,0.824 -2.715,0.131 l -12.588,-10.838 -7.754,9.003 11.268,9.701 c 0.805,0.692 0.932,1.941 0.271,2.705 l -2.207,2.564 c -0.656,0.765 -1.959,0.88 -2.766,0.187 l -11.266,-9.701 -9.352,10.859 13.104,11.284 c 0.807,0.692 0.932,1.942 0.271,2.706 l -2.633,3.056 c -0.649,0.765 -1.903,0.826 -2.71,0.133 z m -279.555,343.52 -19.922,-16.81 c -0.771,-0.65 -0.818,-1.822 -0.168,-2.592 l 2.645,-3.14 c 0.744,-0.881 1.514,-1.457 2.559,-1.801 l 28.826,-10.158 c 3.477,-1.214 5.885,-1.725 7.531,-1.558 -1.717,-0.979 -2.688,-1.612 -4.561,-3.19 l -9.854,-8.312 c -0.771,-0.65 -0.93,-1.914 -0.277,-2.688 l 2.602,-3.081 c 0.65,-0.771 1.922,-0.825 2.693,-0.178 l 18.875,15.928 c 0.771,0.65 0.816,1.82 0.17,2.595 l -2.461,2.917 c -0.789,0.935 -1.631,1.262 -2.723,1.657 l -28.922,10.271 c -3.473,1.215 -5.789,1.615 -7.438,1.448 1.451,0.848 2.746,1.655 4.508,3.144 l 11.117,9.381 c 0.77,0.65 0.873,1.867 0.223,2.641 l -2.787,3.302 c -0.647,0.771 -1.866,0.874 -2.636,0.224 z m 26.272,17.519 c -9.301,-5.353 -11.207,-13.01 -6.146,-21.812 l 15.656,-27.213 c 0.572,-1 1.557,-1.265 2.492,-0.726 l 4.244,2.438 c 1.061,0.61 1.336,1.435 0.689,2.56 l -15.439,26.838 c -3.053,5.306 -2.885,9.057 1.797,11.75 4.684,2.689 7.988,1.854 11.328,-3.95 l 15.547,-27.025 c 0.645,-1.125 1.494,-1.301 2.557,-0.688 l 4.244,2.439 c 0.938,0.538 1.201,1.521 0.627,2.521 l -15.654,27.213 c -5.134,8.929 -12.766,10.934 -21.942,5.655 z m 50.783,22.013 -20.275,-7.45 c -0.945,-0.349 -1.459,-1.458 -1.109,-2.403 l 15.498,-42.175 c 0.348,-0.944 1.455,-1.459 2.4,-1.108 l 4.527,1.664 c 0.947,0.348 1.459,1.455 1.111,2.399 l -13.486,36.699 13.992,5.142 c 0.945,0.351 1.459,1.457 1.111,2.403 l -1.367,3.718 c -0.347,0.945 -1.455,1.459 -2.402,1.111 z m 43.824,9.512 -5.588,-1.062 c -1.062,-0.202 -1.934,-1.027 -2.014,-2.146 l -0.715,-10.104 -14.43,-2.747 -4.236,9.161 c -0.398,0.951 -1.523,1.47 -2.586,1.268 l -5.164,-0.98 c -1.203,-0.229 -1.639,-1.41 -1.066,-2.479 l 20.883,-41.543 c 0.482,-1.006 1.666,-1.438 2.656,-1.252 l 7.072,1.349 a 2.535,2.535 0 0 1 2.014,2.143 l 5.074,46.483 c 0.141,1.199 -0.699,2.138 -1.9,1.909 z m -9.9,-39.634 c -0.117,-2.074 0.205,-5.312 0.355,-7.263 -0.59,1.938 -1.521,4.916 -2.408,6.872 l -7.527,16.815 10.684,2.034 z m 32.754,41.093 c -4.246,-0.092 -8.832,-1.127 -11.975,-2.421 -0.928,-0.379 -1.268,-1.322 -1.031,-2.254 l 1.023,-4.083 c 0.238,-1.004 1.33,-1.484 2.33,-1.103 2.855,1.067 6.002,2.22 9.602,2.298 4.176,0.09 7.604,-1.781 7.691,-6.028 0.113,-5.184 -5.186,-6.666 -9.879,-9.36 l -2.635,-1.498 c -3.912,-2.242 -7.156,-5.341 -7.02,-11.748 0.168,-7.771 5.91,-13.48 15.053,-13.282 3.672,0.079 7.109,0.873 9.682,1.938 0.928,0.38 1.125,1.321 0.889,2.253 l -0.945,3.728 c -0.232,0.931 -1.037,1.417 -2.107,1.034 -2.217,-0.843 -4.07,-1.675 -7.453,-1.746 -4.031,-0.088 -6.455,2.092 -6.537,5.836 -0.078,3.6 3.135,4.894 6.77,6.771 l 3.773,1.953 c 4.914,2.557 9.23,6.035 9.066,13.594 -0.196,8.994 -6.649,14.327 -16.297,14.118 z m 36.703,-1.694 c -4.217,0.522 -8.902,0.168 -12.199,-0.656 -0.975,-0.24 -1.445,-1.124 -1.35,-2.08 l 0.422,-4.188 c 0.09,-1.025 1.1,-1.658 2.146,-1.429 2.98,0.646 6.26,1.324 9.832,0.878 4.146,-0.517 7.262,-2.865 6.734,-7.08 -0.643,-5.145 -6.1,-5.844 -11.137,-7.827 l -2.82,-1.1 c -4.195,-1.653 -7.855,-4.244 -8.648,-10.604 -0.963,-7.72 3.889,-14.2 12.963,-15.332 3.645,-0.455 7.162,-0.167 9.859,0.513 0.973,0.241 1.305,1.144 1.205,2.099 l -0.396,3.823 c -0.1,0.954 -0.82,1.553 -1.938,1.33 -2.312,-0.509 -4.271,-1.063 -7.627,-0.646 -4.002,0.5 -6.084,3.011 -5.619,6.728 0.443,3.57 3.812,4.386 7.68,5.718 l 4.02,1.385 c 5.232,1.815 10.012,4.631 10.945,12.134 1.113,8.927 -4.498,15.14 -14.072,16.334 z m 43.496,-9.216 c -10.256,3.156 -17.158,-0.671 -20.145,-10.374 l -9.234,-30.006 c -0.338,-1.102 0.139,-2.001 1.172,-2.316 l 4.682,-1.439 c 1.17,-0.36 1.959,-0.002 2.34,1.238 l 9.105,29.592 c 1.801,5.851 4.656,8.286 9.818,6.697 5.162,-1.588 6.803,-4.579 4.834,-10.979 l -9.172,-29.8 c -0.381,-1.239 0.068,-1.979 1.238,-2.34 l 4.682,-1.439 c 1.033,-0.315 1.934,0.158 2.271,1.263 l 9.232,30.006 c 3.032,9.833 -0.706,16.783 -10.823,19.897 z m 58.145,-26.506 -6.707,3.646 c -0.889,0.479 -1.795,0.315 -2.559,-0.332 l -23.338,-19.282 c -2.482,-2.011 -5.467,-5.39 -8.275,-8.451 2.305,3.337 6.061,8.591 7.396,11.061 l 12.373,22.777 c 0.445,0.822 0.1,1.994 -0.787,2.479 l -3.857,2.096 c -0.887,0.481 -2.059,0.135 -2.506,-0.688 l -21.514,-39.611 c -0.479,-0.886 -0.1,-1.994 0.787,-2.475 l 6.453,-3.509 c 0.949,-0.516 2.363,-0.629 3.127,0.022 l 22.424,18.959 c 2.555,2.137 5.07,5.112 8.008,8.104 -2.373,-3.465 -4.93,-7.563 -6.611,-10.666 L 573.31,464.696 c -0.445,-0.822 -0.1,-1.993 0.787,-2.478 l 3.795,-2.062 c 0.887,-0.481 2.059,-0.138 2.504,0.688 l 21.518,39.611 c 0.443,0.821 0.097,1.993 -0.789,2.475 z m 35.794,-28.795 c -1.475,2.521 -4.062,5.488 -7.121,8.005 -11.23,9.243 -21.77,5.049 -31.289,-6.519 -9.424,-11.453 -9.979,-23.682 -0.357,-31.597 3.504,-2.886 7.369,-4.761 10.971,-5.482 1.1,-0.252 1.963,0.343 2.223,1.341 l 0.93,3.621 c 0.309,1.052 -0.178,1.824 -1.23,2.13 -2.68,0.713 -5.061,1.559 -8.121,4.071 -5.447,4.484 -5.045,10.867 2.916,20.541 8.008,9.729 14.033,10.367 19.537,5.837 a 14.446,14.446 0 0 0 2.748,-3.007 l -8.281,-10.064 -4.395,3.615 c -0.777,0.641 -1.994,0.521 -2.635,-0.256 l -2.426,-2.947 c -0.641,-0.776 -0.523,-1.994 0.256,-2.635 l 9.508,-7.824 c 0.777,-0.641 1.994,-0.521 2.637,0.256 l 13.863,16.851 c 1.139,1.385 1.309,2.272 0.266,4.063 z" />
    <text
       id="center-text"
       fill="#ffffff"
       stroke-width="0"
       stroke="#000000"
       font-weight="bold"
       xml:space="preserve"
       text-anchor="start"
       font-family="Euphoria, sans-serif"
       font-size="100px"
       y="335.4375"
       x="319.5">ARGE</text>
    <path
       id="checkborder"
       fill="#ffffff"
       d="m 936.792,53.9 c -5.15,-7.355 -15.23,-9.53 -22.951,-4.951 -38.76,22.996 -78.859,55.414 -119.188,96.354 -37.672,38.236 -69.734,78.047 -95.344,118.371 l -0.092,-0.206 c -17.02,-37.817 -32.729,-55.431 -49.439,-55.431 -14.393,0 -29.686,7.28 -45.457,21.639 -4.064,3.702 -6.092,8.96 -5.559,14.428 0.535,5.498 3.561,10.295 8.295,13.16 5.461,3.307 10.688,8.172 15.521,14.452 7.678,10.001 16.219,25.921 25.393,47.333 l 6.645,15.42 c 4.205,10.229 7.547,18.812 9.928,25.506 1.8611,5.21192 6.10649,9.21675 11.418,10.771 1.56104,0.4553 3.17892,0.68628 4.805,0.686 3.811,0 7.572,-1.26 10.639,-3.648 5.217,-4.07 12.191,-9.146 20.734,-15.092 l 15.85,-10.709 c 2.53382,-1.71797 4.56716,-4.07668 5.893,-6.836 21.508,-44.894 52.924,-93.884 93.377,-145.613 38.66,-49.425 74.361,-87.174 106.115,-112.2 7.16,-5.651 8.662,-15.943 3.417,-23.434" />
    <path
       id="check"
       fill="#8e8e8e"
       d="m 929.009,59.35 c 2.354,3.358 1.697,7.981 -1.521,10.52 -32.51,25.621 -68.414,63.56 -107.717,113.808 -41.074,52.525 -72.561,101.646 -94.463,147.362 a 7.731,7.731 0 0 1 -2.645,3.069 l -15.9,10.744 c -8.752,6.088 -15.822,11.232 -21.215,15.439 -4.164,3.25 -10.285,1.48 -12.053,-3.495 -2.439,-6.856 -5.812,-15.532 -10.125,-26.021 l -6.676,-15.489 c -9.533,-22.252 -18.402,-38.706 -26.582,-49.357 -5.586,-7.254 -11.625,-12.852 -18.125,-16.789 -4.477,-2.709 -5.133,-8.932 -1.264,-12.452 14.027,-12.769 27.045,-19.156 39.051,-19.156 12.236,0 25.828,16.61 40.777,49.831 l 1.395,3.146 c 2.52,5.688 10.357,6.242 13.666,0.973 25.646,-40.884 57.59,-80.726 95.807,-119.515 39.941,-40.55 79.041,-72.17 117.27,-94.851 a 7.765,7.765 0 0 1 10.32,2.233" />
  </g>
</svg>
